<svg width="89" height="107" viewBox="0 0 89 107" fill="none" xmlns="http://www.w3.org/2000/svg">
<path d="M76.79 27.01C75.22 22.53 72.54 18.44 68.99 15.05C70.02 13.06 70.38 10.78 69.99 8.53C69.52 5.78 67.93 3.31 65.62 1.76C63.9 0.6 61.92 0 59.88 0C56.43 0 53.22 1.7 51.3 4.55L50.39 5.89C48.45 5.57 46.49 5.42 44.51 5.42C42.53 5.42 40.57 5.58 38.63 5.89L37.7 4.54C35.82 1.74 32.63 0.05 29.18 0.05C28.54 0.05 27.89 0.11 27.26 0.23C26.62 0.35 25.02 0.65 23.35 1.78C21.06 3.33 19.48 5.8 19.01 8.54C18.62 10.79 18.98 13.06 20.02 15.06C16.47 18.45 13.79 22.54 12.22 27.02L10.8 27.37C4.62 28.78 0 34.32 0 40.92V66.11C0 73 5.04 78.74 11.62 79.83C12.77 83.02 15.06 85.67 18 87.29V91.31C18 99.97 25.04 107.01 33.7 107.01C37.88 107.01 41.68 105.37 44.5 102.7C47.32 105.37 51.12 107.01 55.3 107.01C63.96 107.01 71 99.97 71 91.31V87.29C73.93 85.67 76.22 83.02 77.38 79.83C83.97 78.74 89 73 89 66.11V40.92C89 34.32 84.38 28.78 78.2 27.37" fill="#171717"/>
<path d="M28.81 8.57978C28.58 8.61978 28.34 8.65978 28.14 8.79978C27.32 9.35978 27.13 10.5098 27.69 11.3298L31.57 17.1198C25.57 20.2998 21.1 25.5798 19.65 31.9098H69.37C67.91 25.5798 63.44 20.2998 57.45 17.1198L61.33 11.3298C61.89 10.5098 61.7 9.34978 60.88 8.79978C60.05 8.23978 58.9 8.47978 58.35 9.30978L54.07 15.6098C51.1 14.5298 47.88 13.9198 44.51 13.9198C41.14 13.9198 37.91 14.5198 34.95 15.6098L30.67 9.30978C30.25 8.68978 29.5 8.44978 28.81 8.57978ZM34.6 22.9198C36.09 22.9198 37.3 24.1298 37.3 25.6198C37.3 27.1198 36.09 28.3198 34.6 28.3198C33.1 28.3198 31.9 27.1198 31.9 25.6198C31.9 24.1298 33.11 22.9198 34.6 22.9198ZM54.4 22.9198C55.9 22.9198 57.1 24.1298 57.1 25.6198C57.1 27.1198 55.9 28.3198 54.4 28.3198C52.91 28.3198 51.7 27.1198 51.7 25.6198C51.7 24.1298 52.91 22.9198 54.4 22.9198ZM13.9 35.5198C10.92 35.5198 8.5 37.9398 8.5 40.9198V66.1098C8.5 69.0898 10.92 71.5098 13.9 71.5098C14.53 71.5098 15.14 71.3798 15.7 71.1698V35.8598C15.14 35.6498 14.54 35.5198 13.9 35.5198ZM19.3 35.5198V75.1098C19.3 78.0798 21.73 80.5098 24.7 80.5098H64.3C67.27 80.5098 69.7 78.0798 69.7 75.1098V35.5198H19.3ZM75.1 35.5198C74.47 35.5198 73.86 35.6498 73.3 35.8598V71.1798C73.86 71.3798 74.47 71.5198 75.1 71.5198C78.08 71.5198 80.5 69.0998 80.5 66.1198V40.9198C80.5 37.9398 78.09 35.5198 75.1 35.5198ZM26.5 84.1098V91.3098C26.5 95.2798 29.73 98.5098 33.7 98.5098C37.67 98.5098 40.9 95.2798 40.9 91.3098V84.1098H26.5ZM48.1 84.1098V91.3098C48.1 95.2798 51.33 98.5098 55.3 98.5098C59.27 98.5098 62.5 95.2798 62.5 91.3098V84.1098H48.1Z" fill="url(#paint0_linear_192_18)"/>
<defs>
<linearGradient id="paint0_linear_192_18" x1="99.1561" y1="76.7511" x2="1.2417" y2="33.7484" gradientUnits="userSpaceOnUse">
<stop stop-color="#FB9A33"/>
<stop offset="1" stop-color="#03BDCE"/>
</linearGradient>
</defs>
</svg>
