<svg width="99" height="107" viewBox="0 0 99 107" fill="none" xmlns="http://www.w3.org/2000/svg">
<path d="M89.5477 76.1754L91.7804 71.2895L86.7471 69.4125C75.5793 65.2477 74.1661 50.0163 84.8343 44.253L90.1559 41.378L86.3312 36.6922C81.0386 30.208 73.3935 26.1342 65.6921 26.1342C65.4622 26.1342 65.2354 26.1368 65.0117 26.1419C67.7725 21.9385 69.8205 16.2943 68.9009 10.2482L68.2097 5.70325L63.6228 6.01123C57.4528 6.42551 50.7635 10.109 46.7841 14.8578L46.776 14.8675C44.1922 17.9668 41.6118 22.5711 41.1253 27.714C38.7196 26.9216 35.7755 26.1415 32.2721 26.1415C23.6436 26.1415 15.0584 31.2294 9.7767 39.2398C5.7705 45.3068 4.39774 53.5061 5.23631 61.9199C6.08357 70.4207 9.21946 79.5963 14.8144 87.9924L14.8177 87.9973C16.7086 90.8275 19.1377 94.1867 22.1095 96.8677C25.088 99.5548 29.0494 101.953 33.948 101.999C37.7248 102.038 40.389 100.862 42.3162 100.011C42.4747 99.9413 42.6283 99.8736 42.777 99.8089C44.5679 99.0299 46.1967 98.3907 49.1131 98.377L49.1225 98.377L49.1319 98.3769C52.0149 98.3525 53.578 98.9753 55.2934 99.7411C55.4498 99.8109 55.6121 99.8847 55.7807 99.9613C57.6575 100.814 60.3039 102.017 64.0787 101.985C69.1215 101.948 73.1893 99.2374 76.1468 96.4445C79.1457 93.6126 81.6255 90.1053 83.4966 87.301L83.4989 87.2974C86.333 83.0419 87.4439 80.7794 89.5477 76.1754Z" fill="url(#paint0_linear_176_243)" stroke="#171717" stroke-width="10"/>
<defs>
<linearGradient id="paint0_linear_176_243" x1="98.6521" y1="88.2811" x2="-0.327549" y2="40.8932" gradientUnits="userSpaceOnUse">
<stop stop-color="#FB9A33"/>
<stop offset="1" stop-color="#03BDCE"/>
</linearGradient>
</defs>
</svg>
