<svg width="102" height="102" viewBox="0 0 102 102" fill="none" xmlns="http://www.w3.org/2000/svg">
<path d="M101.966 43.0022C101.888 36.9606 99.5153 31.5281 95.1139 27.2948C93.1112 25.3669 90.8172 23.8724 88.2653 22.8337C88.2653 20.7601 88.2653 18.593 88.2503 16.3736C88.1943 7.22346 81.5848 0.572859 72.5355 0.557914C63.1723 0.546705 53.8054 0.542969 44.4423 0.542969C35.0829 0.542969 25.716 0.546705 16.3528 0.557914C7.2101 0.569123 0.574446 7.20852 0.566974 16.3475L0.563234 18.862C0.544552 37.0578 0.525867 57.6821 0.570702 77.4695C0.604329 91.1294 11.3387 101.886 25.0098 101.957C30.0015 101.98 35.4079 101.991 41.5354 101.991C46.7812 101.991 52.0269 101.983 57.269 101.976L63.8673 101.965C69.7968 101.957 75.2816 99.9135 79.7278 96.0613C85.2127 91.3088 88.1569 84.9496 88.2428 77.6676C88.2541 76.8418 88.2578 75.975 88.2615 75.0559C96.6047 71.697 101.906 63.8096 101.974 54.3381C102 50.7214 102.019 46.8394 101.966 43.0022Z" fill="#171717"/>
<path d="M78.7229 30.6124C82.5713 30.5974 85.8368 31.595 88.5008 34.1581C91.0452 36.6054 92.3865 39.5982 92.4351 43.1252C92.4837 46.8391 92.4725 50.5567 92.4463 54.2706C92.394 61.59 87.4471 66.761 80.0979 67.2243C79.7466 67.2467 79.3992 67.2841 78.7229 67.3439C78.7229 70.7626 78.7565 74.1589 78.7154 77.5552C78.6631 82.091 76.9145 85.8871 73.4883 88.8537C70.7384 91.2375 67.4916 92.4219 63.8562 92.4256C50.9249 92.4443 37.9898 92.4817 25.0585 92.4182C16.5921 92.3771 10.1245 85.8946 10.1059 77.4431C10.061 57.0803 10.0797 36.7175 10.0984 16.3547C10.1021 12.3979 12.4074 10.0889 16.3642 10.0852C35.083 10.0628 53.8018 10.0628 72.5244 10.0852C76.44 10.0889 78.6967 12.4353 78.7192 16.4294C78.7453 21.0699 78.7229 25.7104 78.7229 30.6124ZM60.3702 63.29C60.4001 59.7741 58.9542 56.8823 56.3911 54.6069C54.493 52.9218 53.6225 50.9266 53.4656 48.4308C53.1554 43.5175 49.3071 39.8821 44.5097 39.8037C39.6824 39.7252 35.6696 43.4353 35.3408 48.4345C35.1764 50.9266 34.2647 52.8844 32.419 54.6143C26.6763 59.9983 27.1658 67.979 33.4241 72.7951C39.8206 77.7196 49.535 77.6299 55.7297 72.5299C58.6216 70.1573 60.3553 67.1384 60.3702 63.29ZM78.8313 60.2449C83.1018 60.4878 85.523 58.3319 85.579 54.2855C85.6276 50.7174 85.6313 47.1492 85.579 43.5848C85.5192 39.5944 82.9561 37.3526 78.835 37.6889C78.8313 45.1428 78.8313 52.6117 78.8313 60.2449ZM44.4125 32.2526C44.2817 33.8555 44.9094 35.0399 46.7851 35.2603C51.5937 35.8282 56.2491 31.2737 55.8456 26.4128C55.6961 24.6044 54.7658 23.7824 52.9163 23.7936C48.1488 23.8198 44.5246 27.3244 44.4125 32.2526Z" fill="url(#paint0_linear_254_28343)"/>
<defs>
<linearGradient id="paint0_linear_254_28343" x1="107.466" y1="84.1012" x2="4.76567" y2="27.7168" gradientUnits="userSpaceOnUse">
<stop stop-color="#FB9A33"/>
<stop offset="1" stop-color="#03BDCE"/>
</linearGradient>
</defs>
</svg>
