<svg width="86" height="105" viewBox="0 0 86 105" fill="none" xmlns="http://www.w3.org/2000/svg">
<path d="M70.6936 5.71755C67.6977 5.71406 64.7053 5.70707 61.7129 5.70707C59.3036 5.70707 57.1423 5.71057 55.1136 5.71755C52.1666 2.28869 47.9731 0.41714 43.1405 0.410156C38.3359 0.410156 34.1494 2.28171 31.1919 5.71755C29.1702 5.71057 27.0123 5.70707 24.6066 5.70707C21.6072 5.70707 18.6078 5.71406 15.6084 5.71755C6.31699 5.73501 0.307765 11.7338 0.304273 21.0007C0.300781 29.0387 0.300781 37.0801 0.300781 45.118V65.0137C0.300781 72.9119 0.300781 80.8137 0.304273 88.7119C0.307765 98.0243 6.30303 104.041 15.5735 104.044C25.0256 104.044 34.4776 104.047 43.9297 104.047C52.8579 104.047 61.7862 104.047 70.711 104.044C79.9955 104.044 85.9942 98.0278 85.9977 88.7224C86.0012 66.1555 86.0012 43.5886 85.9977 21.0182C85.9977 11.7373 79.9885 5.73152 70.6936 5.71755Z" fill="#171717"/>
<path d="M9.20956 54.857C9.20956 43.5753 9.20607 32.2902 9.20956 21.0084C9.21305 16.6543 11.2382 14.6361 15.6273 14.6291C21.9683 14.6186 28.3057 14.6082 34.6466 14.6466C35.6837 14.6535 36.2808 14.444 36.7696 13.3861C37.9952 10.7254 40.2404 9.32171 43.1559 9.3252C46.068 9.32869 48.3237 10.7219 49.5318 13.4C50.0206 14.479 50.6387 14.6501 51.6617 14.6466C58.0027 14.6116 64.3401 14.6221 70.681 14.6326C75.0701 14.6396 77.0918 16.6578 77.0918 21.0259C77.0953 43.5928 77.0953 66.1597 77.0918 88.7266C77.0918 93.1192 75.0771 95.1409 70.7125 95.1409C52.3321 95.1443 33.9553 95.1443 15.5749 95.1409C11.2173 95.1409 9.21305 93.1192 9.21305 88.7161C9.20956 77.4239 9.21305 66.1387 9.20956 54.857ZM55.5375 23.5364C55.5375 21.8395 55.5375 20.1495 55.5375 18.264C53.4669 18.264 51.4487 18.2256 49.4305 18.2744C47.7894 18.3129 46.8187 17.7786 46.6267 15.9664C46.4346 14.1403 44.9123 12.9007 43.1943 12.8763C41.4799 12.8518 39.8702 14.0879 39.6887 15.8826C39.4966 17.7821 38.498 18.3268 36.7801 18.2779C34.7758 18.2186 32.7681 18.264 30.7394 18.264C30.7394 20.1809 30.7394 21.829 30.7394 23.5364C39.0357 23.5364 47.2133 23.5364 55.5375 23.5364ZM33.236 64.3161C33.875 64.0507 34.2765 63.9494 34.6047 63.7365C40.4114 59.9968 46.2147 56.2467 52.0109 52.4932C53.0514 51.8193 53.3901 50.859 52.6918 49.8185C52.0214 48.8199 51.0332 48.8758 50.08 49.4903C44.2768 53.2369 38.4805 56.994 32.6843 60.751C32.4434 60.9082 32.1152 61.0932 32.0523 61.3237C31.8952 61.9033 31.6438 62.6156 31.8533 63.087C32.0942 63.6177 32.7925 63.946 33.236 64.3161ZM58.8721 64.8329C57.8141 65.7023 56.7876 66.2295 56.2743 67.071C55.9041 67.6786 55.8937 69.0299 56.3162 69.4524C56.7317 69.8679 58.09 69.8365 58.6905 69.4594C59.525 68.9321 60.0418 67.8986 61.009 66.6869C61.9727 67.8776 62.5489 68.6772 63.2158 69.3895C64.0049 70.231 64.9651 70.3882 65.8171 69.5292C66.6586 68.6842 66.5364 67.6995 65.7054 66.9139C64.9931 66.24 64.155 65.6988 62.905 64.7386C64.2179 63.7015 65.2549 63.1917 65.7752 62.3607C66.1488 61.7601 65.8346 60.7266 65.8276 59.8886C64.9896 59.8991 63.956 59.6127 63.3554 59.9968C62.5314 60.5241 62.0356 61.5611 61.0579 62.8146C60.1396 61.6275 59.6403 60.9082 59.0676 60.2587C58.2261 59.309 57.1856 58.9423 56.2079 59.9514C55.2163 60.9745 55.6946 61.9731 56.613 62.8146C57.21 63.3628 57.8246 63.8971 58.8721 64.8329ZM28.8783 44.7276C27.8902 43.5788 27.2826 42.7967 26.5913 42.0949C25.8336 41.3267 24.9153 41.2115 24.1122 41.9796C23.2532 42.8002 23.3091 43.7744 24.1296 44.5949C24.8524 45.3177 25.6869 45.9253 26.7484 46.8156C25.6066 47.7968 24.6429 48.3136 24.175 49.1167C23.8014 49.7626 23.6966 50.9568 24.0598 51.5504C24.6673 52.5455 25.7812 52.4094 26.5983 51.5748C27.321 50.8416 27.9356 50.0001 28.7457 49.0329C29.7164 50.0944 30.3239 50.7962 30.9699 51.4561C31.8288 52.3325 32.8135 52.556 33.7004 51.5888C34.4965 50.7194 34.2905 49.7836 33.4874 48.9596C32.8135 48.2682 32.1536 47.5664 31.2492 46.6201C32.1536 45.831 33.1347 45.2653 33.6585 44.4168C34.0146 43.8407 34.0077 42.6884 33.6515 42.1088C33.0928 41.2045 32.0209 41.2394 31.2318 41.9971C30.4741 42.7234 29.856 43.5753 28.8783 44.7276ZM33.0963 69.1975C32.597 69.6968 31.8009 70.1228 31.7485 70.6291C31.6752 71.3065 31.965 72.3086 32.4678 72.7171C35.0901 74.8331 37.8311 76.7954 40.5232 78.8241C41.4764 79.5434 42.4576 79.8088 43.2781 78.7613C44.1546 77.6439 43.6378 76.7081 42.6252 75.9504C39.9715 73.9672 37.3283 71.9734 34.6641 70.0076C34.2591 69.7038 33.7597 69.5327 33.0963 69.1975ZM57.423 30.8481C55.7016 32.6568 54.0989 34.3468 52.388 36.1485C53.4704 36.1485 54.483 36.1485 55.6946 36.1485C55.6946 37.388 55.6842 38.4705 55.6981 39.5564C55.7121 40.7156 56.2463 41.4629 57.4684 41.4524C58.694 41.4419 59.2038 40.6737 59.2178 39.525C59.2317 38.439 59.2213 37.3566 59.2213 36.2183C60.4119 36.159 61.4036 36.1066 62.3848 36.0577C60.6913 34.2804 59.106 32.6149 57.423 30.8481ZM23.5395 66.4565C23.5186 68.4642 25.0235 70.0285 27.0068 70.0564C28.9761 70.0844 30.5683 68.5341 30.5963 66.5647C30.6242 64.564 29.1158 63.0137 27.115 62.9927C25.0863 62.9648 23.564 64.4418 23.5395 66.4565ZM52.0633 82.5602C52.0423 80.5874 50.4676 79.0581 48.4738 79.0755C46.494 79.093 44.9227 80.6817 44.9472 82.6336C44.9716 84.5784 46.5918 86.1497 48.5506 86.1323C50.5199 86.1183 52.0842 84.5261 52.0633 82.5602ZM60.9881 46.8541C60.9951 44.8952 59.4098 43.282 57.4649 43.2751C55.5166 43.2681 53.9313 44.8603 53.9278 46.8331C53.9244 48.8024 55.5026 50.4121 57.444 50.4191C59.3679 50.4226 60.9776 48.8059 60.9881 46.8541Z" fill="url(#paint0_linear_254_28339)"/>
<defs>
<linearGradient id="paint0_linear_254_28339" x1="89.4516" y1="86.443" x2="-3.202" y2="46.2061" gradientUnits="userSpaceOnUse">
<stop stop-color="#FB9A33"/>
<stop offset="1" stop-color="#03BDCE"/>
</linearGradient>
</defs>
</svg>
