<svg width="117" height="98" viewBox="0 0 117 98" fill="none" xmlns="http://www.w3.org/2000/svg">
<path d="M109.42 33.23C109.01 29.62 107.83 26.08 105.97 22.83C107.11 21.3 107.81 19.44 107.95 17.51C108.14 14.82 107.27 12.23 105.49 10.21C103.56 8.03 100.81 6.8 97.9201 6.8C95.5101 6.8 93.1801 7.66 91.3501 9.23L90.8801 9.63C89.5001 9.05 88.0801 8.56 86.6101 8.17C85.1501 7.78 83.6801 7.49 82.1901 7.3L81.9801 6.69C80.6901 2.98 77.2701 0.36 73.2701 0.04C73.0801 0.03 72.7301 0 72.3101 0C71.2401 0 70.2001 0.17 69.2101 0.51C66.6801 1.38 64.6501 3.18 63.4701 5.59C62.6201 7.33 62.3001 9.28 62.5201 11.19C59.2801 13.08 56.4901 15.55 54.3301 18.47L53.1501 18.15C53.3201 14.67 52.7401 11.26 51.4001 8.21L48.2601 1.05L40.8601 3.57C34.9401 5.59 29.3101 10.75 26.5201 16.71C25.0901 19.79 24.2801 22.96 24.0901 26.04C22.6301 26.17 21.2301 26.42 19.8501 26.79C11.4901 29.03 4.40008 36.08 1.36008 45.19C-3.09992 58.49 3.49008 76.28 17.3901 88.46C22.0301 92.51 28.2901 97.16 35.7001 97.16C37.1601 97.16 38.6101 96.98 40.0001 96.62C43.9501 95.61 46.3101 93.72 48.0401 92.34C49.3401 91.31 49.9901 90.79 51.6801 90.33C51.7001 90.32 51.7201 90.32 51.7401 90.31C52.6701 90.79 53.6501 91.18 54.6901 91.46C55.9401 91.79 57.2201 91.96 58.5101 91.96C60.6201 91.96 62.6501 91.51 64.4901 90.69C66.4601 93.42 69.2901 95.37 72.5901 96.26C73.8401 96.59 75.1201 96.76 76.4101 96.76C83.0301 96.76 88.8501 92.31 90.5501 85.95L91.2301 83.4C93.8001 82.62 96.0601 81.07 97.7001 78.99C97.9101 79 98.1201 79.01 98.3301 79.01C104.26 79.01 109.46 75.03 110.99 69.32L116.52 48.69C117.43 45.3 116.95 41.75 115.17 38.72C114.08 36.86 112.59 35.33 110.81 34.22L109.42 33.23Z" fill="#171717"/>
<path d="M72.5898 8.51983C72.3898 8.49983 72.1798 8.47983 71.9798 8.54983C71.1798 8.81983 70.7698 9.72983 71.0498 10.5198L72.9998 16.1298C67.3298 17.3998 62.4698 20.7298 59.8698 25.5898L101.08 36.6298C101.26 31.1198 98.7198 25.7998 94.4398 21.8698L98.9198 17.9998C99.5598 17.4498 99.6598 16.4698 99.0998 15.8298C98.5298 15.1898 97.5298 15.1298 96.8898 15.6798L91.9698 19.8898C89.7498 18.3398 87.2098 17.1298 84.4198 16.3898C81.6198 15.6398 78.8198 15.4198 76.1298 15.6498L73.9698 9.53983C73.7598 8.92983 73.1898 8.55983 72.5898 8.51983ZM74.2398 21.5498C75.4798 21.8798 76.2098 23.1398 75.8898 24.3598C75.5598 25.5898 74.2998 26.2998 73.0598 25.9698C71.8198 25.6398 71.0898 24.3898 71.4198 23.1598C71.7398 21.9398 72.9998 21.2198 74.2398 21.5498ZM90.6498 25.9498C91.8898 26.2798 92.6198 27.5398 92.2898 28.7598C91.9598 29.9898 90.6998 30.6998 89.4598 30.3698C88.2198 30.0398 87.4898 28.7898 87.8098 27.5598C88.1498 26.3398 89.4098 25.6098 90.6498 25.9498ZM54.3198 27.2698C51.8498 26.6098 49.3098 28.0498 48.6598 30.4898L43.1298 51.1198C42.4798 53.5598 43.9498 56.0798 46.4198 56.7398C46.9398 56.8798 47.4698 56.9098 47.9898 56.8598L55.7398 27.9398C55.3198 27.6498 54.8498 27.4098 54.3198 27.2698ZM58.7998 28.4698L50.1098 60.8898C49.4598 63.3298 50.9398 65.8498 53.3998 66.5098L86.2098 75.2998C88.6698 75.9598 91.2198 74.5098 91.8698 72.0798L100.56 39.6598L58.7998 28.4698ZM105.04 40.8598C104.52 40.7198 103.99 40.6898 103.48 40.7398L95.7298 69.6598C96.1498 69.9498 96.6198 70.1998 97.1498 70.3398C99.6198 70.9998 102.16 69.5598 102.81 67.1198L108.34 46.4898C108.98 44.0398 107.51 41.5198 105.04 40.8598ZM54.0998 69.8598L52.5198 75.7498C51.6498 78.9998 53.6098 82.3598 56.9098 83.2398C60.1998 84.1198 63.5798 82.1998 64.4598 78.9398L66.0398 73.0498L54.0998 69.8598ZM71.9998 74.6498L70.4198 80.5398C69.5498 83.7898 71.5098 87.1498 74.8098 88.0298C78.0998 88.9098 81.4798 86.9898 82.3598 83.7298L83.9398 77.8398L71.9998 74.6498Z" fill="url(#paint0_linear_192_10)"/>
<path d="M74.9201 55.6896C69.6201 55.1896 65.2601 51.7696 63.5401 46.7496C61.8701 41.8896 63.1701 36.8096 67.0301 33.1796L69.5301 30.8196L66.7401 28.8096C62.7201 25.9196 57.9901 24.3296 53.4401 24.3296C51.8101 24.3296 50.2201 24.5296 48.7201 24.9396C47.4401 25.2796 46.3001 25.6996 45.2901 26.1596C45.4701 25.8096 45.6401 25.4496 45.8001 25.0796C47.9501 20.1096 48.1101 14.7896 46.2201 10.4896L45.1701 8.09961L42.7001 8.93961C38.2401 10.4596 33.8001 14.5496 31.6701 19.1196C29.6801 23.4096 29.2301 27.9996 30.3801 31.7996C30.3301 31.7996 30.2901 31.7896 30.2401 31.7896C29.1101 31.6996 27.9401 31.6196 26.6701 31.6196C24.7501 31.6196 23.0101 31.8396 21.3301 32.2896C14.7901 34.0296 9.21011 39.6696 6.76011 46.9996C3.07011 58.0096 9.12011 73.6596 21.1501 84.2096C25.2801 87.8196 30.2301 91.4996 35.7201 91.4996C36.7001 91.4996 37.6701 91.3796 38.6001 91.1396C41.3801 90.4296 43.0501 89.0896 44.5201 87.9096C45.9901 86.7396 47.3801 85.6296 50.2001 84.8596C51.4501 84.5096 52.5801 84.3496 53.6601 84.3496C54.7001 84.3496 55.6101 84.4996 56.5701 84.6496C57.5901 84.8196 58.6501 84.9896 59.8701 84.9896C61.0101 84.9896 62.1101 84.8396 63.2401 84.5196C69.5601 82.7796 72.7201 75.7896 74.9701 69.1796C76.3201 65.2096 76.7201 63.2296 77.4401 58.9896L77.9501 55.9796L74.9201 55.6896Z" fill="#171717"/>
<path d="M74.6501 58.5099C73.9501 62.6099 73.5801 64.4599 72.2901 68.2599C70.4801 73.5699 67.7301 80.3399 62.4901 81.7899C57.8201 83.0899 55.8001 80.3699 49.4601 82.1299C43.1201 83.8599 42.5901 87.1899 37.8901 88.3999C32.6101 89.7599 27.2301 85.7699 23.0101 82.0799C11.2001 71.7199 6.34012 57.1599 9.45012 47.8999C11.6501 41.3299 16.6001 36.4899 22.0801 35.0199C27.6601 33.5199 31.9801 35.5899 36.5901 34.3599C41.0701 33.1599 42.9901 29.4099 49.4401 27.6799C54.3201 26.3699 60.1801 27.5999 65.0801 31.1199C54.7501 40.8499 61.2501 57.2399 74.6501 58.5099ZM43.1901 23.9599C44.7501 20.3699 45.4101 15.7099 43.6201 11.6299C39.8601 12.9099 36.0201 16.5099 34.2401 20.3299C32.6301 23.7999 31.7901 28.5399 33.6401 32.3999C37.8601 31.4099 41.5301 27.7999 43.1901 23.9599Z" fill="url(#paint1_linear_192_10)"/>
<defs>
<linearGradient id="paint0_linear_192_10" x1="115.647" y1="80.3034" x2="44.4471" y2="22.7273" gradientUnits="userSpaceOnUse">
<stop stop-color="#FB9A33"/>
<stop offset="1" stop-color="#03BDCE"/>
</linearGradient>
<linearGradient id="paint1_linear_192_10" x1="89.7649" y1="74.3192" x2="1.99002" y2="32.9612" gradientUnits="userSpaceOnUse">
<stop stop-color="#FB9A33"/>
<stop offset="1" stop-color="#03BDCE"/>
</linearGradient>
</defs>
</svg>
