<svg width="258" height="74" viewBox="0 0 258 74" fill="none" xmlns="http://www.w3.org/2000/svg">
<path d="M36.755 17.6901H30.375V57.0801H36.755V17.6901Z" fill="#0F172A"/>
<path d="M51.7751 17.6901H45.4351V57.0801H51.7751V29.9801C51.7751 27.6001 52.245 25.8301 53.195 24.6701C54.145 23.5101 55.5651 22.9201 57.4651 22.9201C59.3651 22.9201 60.785 23.4601 61.735 24.5501C62.685 25.6401 63.1551 27.2801 63.1551 29.4801V57.0701H69.4951V28.4601C69.4951 24.6901 68.715 21.8401 67.1451 19.9001C65.5751 17.9601 63.8951 17.6801 60.8051 17.6801C58.7351 17.6901 53.4151 17.6901 51.7751 17.6901Z" fill="#0F172A"/>
<path d="M96.3748 37.6501C95.3648 36.8401 94.2348 36.2001 92.9948 35.7301C91.7548 35.2601 90.5248 34.8501 89.3148 34.5001C88.1048 34.1501 86.9848 33.7501 85.9548 33.3201C84.9348 32.8901 84.1048 32.2801 83.4848 31.5001C82.8648 30.7201 82.5548 29.6501 82.5548 28.3101C82.5548 26.4401 82.9748 25.3901 83.8148 24.4001C84.6649 23.4101 85.9048 22.9201 87.5548 22.9201C89.1948 22.9201 90.4549 23.3801 91.3148 24.3101C92.1749 25.2301 92.6148 26.2101 92.6148 28.0101V28.1601H98.6848V28.0501C98.6848 24.4601 97.7348 22.4001 95.8248 20.5201C93.9148 18.6401 91.1648 17.6901 87.5748 17.6901C84.0048 17.6901 81.2648 18.6801 79.3348 20.6501C77.4148 22.6201 76.4448 24.7701 76.4448 28.4701C76.4448 30.5501 76.7648 32.2401 77.4148 33.5601C78.0648 34.8801 78.9048 35.9501 79.9348 36.7701C80.9748 37.5901 82.1148 38.2601 83.3648 38.7601C84.6148 39.2701 85.8548 39.7201 87.0648 40.1301C88.2748 40.5101 89.3848 40.9201 90.3848 41.3601C91.3848 41.8001 92.1848 42.3901 92.7748 43.1201C93.3648 43.8501 93.6648 44.8701 93.6648 46.1601C93.6648 48.0801 93.1748 48.5701 92.1848 49.5901C91.1948 50.6101 89.7548 51.1301 87.8548 51.1301C85.9348 51.1301 84.4748 50.6001 83.4948 49.5401C82.5048 48.4801 82.0148 47.9101 82.0148 45.8601V45.7101H75.9448V45.8601C75.9448 49.6601 76.9749 52.0001 79.0349 54.0401C81.0949 56.0801 84.0348 57.1001 87.8548 57.1001C91.7048 57.1001 94.6448 56.1101 96.6948 54.1201C98.7448 52.1301 99.7648 49.8601 99.7648 46.1701C99.7648 43.9901 99.4448 42.2401 98.8148 40.8901C98.2048 39.5301 97.3848 38.4601 96.3748 37.6501Z" fill="#0F172A"/>
<path d="M115.855 45.6901L108.525 17.6801H102.075L113.425 56.3301L112.055 62.1601C111.625 63.9301 110.875 65.2701 109.815 66.1601C108.755 67.0601 107.225 67.5101 105.225 67.5101H104.505V73.5101H105.225C108.465 73.5101 111.015 72.9101 112.875 71.7101C114.735 70.5101 115.965 68.7101 116.575 66.3001L128.985 17.6801H122.535L115.855 45.6901Z" fill="#0F172A"/>
<path d="M141.175 49.94C140.555 49.16 140.245 48.07 140.245 46.68V1.90002H133.905V46.65C133.905 49.96 134.715 52.53 136.335 54.35C137.955 56.17 140.215 57.08 143.125 57.08H146.165V51.12H143.815C142.675 51.12 141.795 50.73 141.175 49.94Z" fill="#49ABB2"/>
<path d="M159.125 49.94C158.505 49.16 158.195 48.07 158.195 46.68V1.90002H151.855V46.65C151.855 49.96 152.665 52.53 154.285 54.35C155.905 56.17 158.165 57.08 161.075 57.08H164.115V51.12H161.765C160.625 51.12 159.745 50.73 159.125 49.94Z" fill="#49ABB2"/>
<path d="M176.535 17.6899H170.155V57.0799H176.535V17.6899Z" fill="#49ABB2"/>
<path d="M176.535 1.90002H170.155V8.24002H176.535V1.90002Z" fill="#49ABB2"/>
<path d="M202.185 57.0799H208.525V17.6899H202.185V46.2999C202.185 48.0499 201.745 48.9099 200.875 49.7899C200.005 50.6799 198.685 51.1199 196.905 51.1199C195.185 51.1199 193.865 50.6799 192.935 49.7899C192.015 48.8999 191.545 48.0899 191.545 46.4499V17.6899H185.205V46.5699C185.205 50.1399 185.995 52.8799 187.575 54.7899C189.155 56.6999 191.435 57.0899 194.425 57.0899H202.185V57.0799Z" fill="#49ABB2"/>
<path d="M247.915 17.6899C251.005 17.6899 253.325 18.6599 254.895 20.5899C256.465 22.5299 257.245 24.6999 257.245 28.4599V57.0799H250.905V29.4899C250.905 27.2899 250.435 25.6399 249.505 24.5599C248.565 23.4699 247.135 22.9299 245.215 22.9299C243.515 22.9299 242.265 23.5199 241.455 24.6899C240.645 25.8699 240.245 27.6399 240.245 30.0199V57.0799H233.865V29.4899C233.865 27.2899 233.465 25.6399 232.655 24.5599C231.845 23.4699 230.595 22.9299 228.895 22.9299C226.995 22.9299 225.575 23.5099 224.625 24.6799C223.675 25.8399 223.205 27.6299 223.205 30.0299V57.0899H216.865V17.6899H223.205H247.915Z" fill="#49ABB2"/>
<path d="M29.4449 4.13L29.4149 8.8H26.1149L25.5349 8.81001C23.4549 8.87001 21.2549 9.18 18.9949 9.73C16.9049 10.26 15.1349 11.04 13.6049 12.15C10.6449 14.27 9.1249 17 8.9349 20.49C8.8949 21.23 8.86489 21.96 8.82489 22.68C8.79489 23.42 8.7549 24.16 8.7149 24.89C8.6149 26.45 8.25488 27.89 7.63488 29.16C7.26488 29.9 6.8849 30.63 6.4949 31.36L6.22488 31.9L7.8449 31.99C8.7449 32.05 9.7649 32.87 9.8049 33.9L9.8449 34.51C9.85491 34.92 9.88488 35.32 9.88488 35.73L9.95489 42.91C9.95489 43.59 10.0649 44.16 10.2949 44.66C10.4949 45.12 10.7949 45.37 11.1949 45.49C11.4549 45.56 11.7049 45.59 11.9749 45.59C12.7849 45.62 13.5949 45.63 14.4049 45.65C15.2149 45.65 16.0249 45.66 16.8349 45.69C17.5049 45.7 18.0849 45.75 18.6149 45.85C19.5149 46.03 20.1749 46.89 20.1749 47.83L20.2349 56.37C20.2449 56.5 20.2449 56.57 20.2449 56.63H15.5749C15.5649 55.34 15.5649 54.06 15.5649 52.76C15.5649 51.96 15.5649 51.17 15.5549 50.37C15.1149 50.36 14.7149 50.34 14.3349 50.34C13.3549 50.31 12.3249 50.28 11.3149 50.2C8.92491 50.02 7.1649 48.83 6.0849 46.7C5.3549 45.28 5.25491 43.83 5.25491 42.48L5.26489 36.62L4.5849 36.59C3.8349 36.58 3.0949 36.55 2.3349 36.55C1.5849 36.64 0.844903 36.18 0.404903 35.5C-0.0550975 34.82 -0.12511 33.99 0.20489 33.28C1.07489 31.35 1.96489 29.62 2.92489 28.04C3.60489 26.93 3.96491 25.85 4.03491 24.75L4.07489 24.22C4.13489 23.32 4.18489 22.43 4.20489 21.53C4.24489 18.74 4.83489 16.29 5.95489 14.05C7.42489 11.15 9.6949 8.84 12.7449 7.21C15.1649 5.9 17.8549 5.03 20.9849 4.54C22.6949 4.3 24.1249 4.17 25.5049 4.17L26.1149 4.16H29.4449V4.13Z" fill="#49ABB2"/>
<path d="M38.195 1.96C37.015 0.72 35.425 0.03 33.725 0H33.415C29.905 0.07 27.145 2.89 27.145 6.42C27.145 8.13 27.825 9.75 29.055 10.94C30.265 12.13 31.855 12.79 33.635 12.79H33.695C37.155 12.72 39.915 9.96 39.985 6.5C40.005 4.81 39.375 3.19 38.195 1.96Z" fill="#0F172A"/>
</svg>
