<svg xmlns="http://www.w3.org/2000/svg" xmlns:xlink="http://www.w3.org/1999/xlink" viewBox="0 0 696.44 458.31"><defs><style>.cls-1{isolation:isolate;}.cls-2{fill:url(#linear-gradient);}.cls-3{fill:url(#linear-gradient-2);}.cls-4{fill:url(#linear-gradient-3);}.cls-5{fill:url(#linear-gradient-4);}.cls-6{fill:url(#linear-gradient-5);}.cls-7{fill:url(#linear-gradient-6);}.cls-8{fill:url(#linear-gradient-7);}.cls-9{fill:url(#linear-gradient-8);}.cls-10{fill:url(#linear-gradient-9);}.cls-11{fill:url(#linear-gradient-10);}.cls-12{fill:url(#linear-gradient-11);}.cls-13{fill:url(#linear-gradient-12);}.cls-14{fill:url(#linear-gradient-13);}.cls-15{fill:url(#linear-gradient-14);}.cls-16{fill:url(#linear-gradient-15);}.cls-17{fill:url(#linear-gradient-16);}.cls-18{fill:url(#linear-gradient-17);}.cls-19{fill:url(#linear-gradient-18);}.cls-20{fill:url(#linear-gradient-19);}.cls-21{fill:url(#linear-gradient-20);}.cls-22{fill:url(#linear-gradient-21);}.cls-23{fill:url(#linear-gradient-22);}.cls-24{fill:url(#linear-gradient-23);}.cls-25{fill:url(#linear-gradient-24);}.cls-26{fill:url(#linear-gradient-25);}.cls-27,.cls-32{fill:#fff;}.cls-28{fill:#7879a2;}.cls-29,.cls-39{fill:none;}.cls-29,.cls-31,.cls-32,.cls-34{stroke:#011635;}.cls-29,.cls-31,.cls-32,.cls-34,.cls-39{stroke-linecap:round;stroke-linejoin:round;stroke-width:1.5px;}.cls-30{fill:#8791ff;}.cls-31,.cls-41,.cls-42{fill:#011635;}.cls-33{fill:#1f1f2a;}.cls-34{fill:#d0d0d6;}.cls-35{fill:url(#linear-gradient-26);}.cls-36{fill:#d8f3f7;}.cls-37{fill:url(#linear-gradient-28);}.cls-38{opacity:0.45;mix-blend-mode:multiply;}.cls-39{stroke:#8791ff;}.cls-40{fill:url(#linear-gradient-33);}.cls-41{font-size:36px;}.cls-41,.cls-42{font-family:D-DIN-Bold, D DIN-Bold;font-weight:700;}.cls-42{font-size:21px;}.cls-43{letter-spacing:-0.05em;}.cls-44{letter-spacing:-0.06em;}.cls-45{fill:url(#linear-gradient-35);}.cls-46{fill:url(#linear-gradient-36);}.cls-47{fill:url(#linear-gradient-37);}</style><linearGradient id="linear-gradient" x1="279.86" y1="73.31" x2="293.98" y2="73.31" gradientUnits="userSpaceOnUse"><stop offset="0" stop-color="#7cbacf"/><stop offset="1" stop-color="#c9edf2"/></linearGradient><linearGradient id="linear-gradient-2" x1="623.29" y1="447.59" x2="634.48" y2="447.59" xlink:href="#linear-gradient"/><linearGradient id="linear-gradient-3" x1="406.29" y1="6.42" x2="412.49" y2="6.42" xlink:href="#linear-gradient"/><linearGradient id="linear-gradient-4" x1="0" y1="245.75" x2="11.18" y2="245.75" xlink:href="#linear-gradient"/><linearGradient id="linear-gradient-5" x1="643.06" y1="265.09" x2="656.5" y2="265.09" xlink:href="#linear-gradient"/><linearGradient id="linear-gradient-6" x1="468.93" y1="451.37" x2="472.15" y2="451.37" xlink:href="#linear-gradient"/><linearGradient id="linear-gradient-7" x1="72.57" y1="424.74" x2="78.86" y2="424.74" xlink:href="#linear-gradient"/><linearGradient id="linear-gradient-8" x1="653.35" y1="85.64" x2="659.64" y2="85.64" xlink:href="#linear-gradient"/><linearGradient id="linear-gradient-9" x1="-1073.7" y1="-135.48" x2="-1067.37" y2="-135.48" xlink:href="#linear-gradient"/><linearGradient id="linear-gradient-10" x1="-437.62" y1="-162.88" x2="-431.29" y2="-162.88" xlink:href="#linear-gradient"/><linearGradient id="linear-gradient-11" x1="-1031.22" y1="-287.42" x2="-1024.89" y2="-287.42" xlink:href="#linear-gradient"/><linearGradient id="linear-gradient-12" x1="-1125.3" y1="63.47" x2="-1118.97" y2="63.47" xlink:href="#linear-gradient"/><linearGradient id="linear-gradient-13" x1="-531.92" y1="-293.75" x2="-525.59" y2="-293.75" xlink:href="#linear-gradient"/><linearGradient id="linear-gradient-14" x1="-798.6" y1="-284.26" x2="-792.27" y2="-284.26" xlink:href="#linear-gradient"/><linearGradient id="linear-gradient-15" x1="-997.79" y1="140.81" x2="-991.46" y2="140.81" xlink:href="#linear-gradient"/><linearGradient id="linear-gradient-16" x1="-471.25" y1="39.79" x2="-464.92" y2="39.79" xlink:href="#linear-gradient"/><linearGradient id="linear-gradient-17" x1="672.69" y1="412.17" x2="672.69" y2="412.17" xlink:href="#linear-gradient"/><linearGradient id="linear-gradient-18" x1="11.18" y1="150.84" x2="11.18" y2="150.84" xlink:href="#linear-gradient"/><linearGradient id="linear-gradient-19" x1="517.84" y1="19.97" x2="517.84" y2="19.97" xlink:href="#linear-gradient"/><linearGradient id="linear-gradient-20" x1="-8.55" y1="447.59" x2="-8.55" y2="447.59" xlink:href="#linear-gradient"/><linearGradient id="linear-gradient-21" x1="218.86" y1="16.8" x2="218.86" y2="16.8" xlink:href="#linear-gradient"/><linearGradient id="linear-gradient-22" x1="681.4" y1="19.97" x2="681.4" y2="19.97" xlink:href="#linear-gradient"/><linearGradient id="linear-gradient-23" x1="347.47" y1="462.65" x2="347.47" y2="462.65" xlink:href="#linear-gradient"/><linearGradient id="linear-gradient-24" x1="16.23" y1="23.13" x2="24.14" y2="23.13" xlink:href="#linear-gradient"/><linearGradient id="linear-gradient-25" x1="-647.62" y1="290.6" x2="-888.14" y2="-310.72" xlink:href="#linear-gradient"/><linearGradient id="linear-gradient-26" x1="241.34" y1="98.21" x2="241.34" y2="357.81" xlink:href="#linear-gradient"/><linearGradient id="linear-gradient-28" x1="409.49" y1="98.21" x2="409.49" y2="357.81" xlink:href="#linear-gradient"/><linearGradient id="linear-gradient-33" x1="519.73" y1="394.12" x2="519.73" y2="316.91" xlink:href="#linear-gradient"/><linearGradient id="linear-gradient-35" x1="-771.45" y1="-149.77" x2="-715.48" y2="-205.75" xlink:href="#linear-gradient"/><linearGradient id="linear-gradient-36" x1="-785.86" y1="-164.18" x2="-729.89" y2="-220.16" xlink:href="#linear-gradient"/><linearGradient id="linear-gradient-37" x1="-757.04" y1="-135.36" x2="-701.07" y2="-191.33" xlink:href="#linear-gradient"/></defs><g class="cls-1"><g id="OBJECTS"><line class="cls-2" x1="293.98" y1="74.31" x2="279.86" y2="72.3"/><line class="cls-3" x1="623.29" y1="443.16" x2="634.48" y2="452.01"/><line class="cls-4" x1="406.29" x2="412.49" y2="12.85"/><line class="cls-5" y1="241.32" x2="11.18" y2="250.17"/><line class="cls-6" x1="643.06" y1="267.48" x2="656.5" y2="262.69"/><line class="cls-7" x1="468.93" y1="444.42" x2="472.15" y2="458.31"/><line class="cls-8" x1="78.86" y1="418.33" x2="72.57" y2="431.14"/><line class="cls-9" x1="659.64" y1="79.24" x2="653.35" y2="92.04"/><path class="cls-10" d="M-1067.37-135.48a3.16,3.16,0,0,0-3.17-3.16,3.15,3.15,0,0,0-3.16,3.16,3.16,3.16,0,0,0,3.16,3.17A3.17,3.17,0,0,0-1067.37-135.48Z" transform="translate(1127.72 313.72)"/><path class="cls-11" d="M-431.29-162.88a3.16,3.16,0,0,0-3.16-3.16,3.17,3.17,0,0,0-3.17,3.16,3.17,3.17,0,0,0,3.17,3.17A3.16,3.16,0,0,0-431.29-162.88Z" transform="translate(1127.72 313.72)"/><path class="cls-12" d="M-1024.89-287.42a3.17,3.17,0,0,0-3.17-3.17,3.17,3.17,0,0,0-3.16,3.17,3.16,3.16,0,0,0,3.16,3.16A3.16,3.16,0,0,0-1024.89-287.42Z" transform="translate(1127.72 313.72)"/><path class="cls-13" d="M-1119,63.47a3.16,3.16,0,0,0-3.16-3.17,3.17,3.17,0,0,0-3.17,3.17,3.17,3.17,0,0,0,3.17,3.16A3.16,3.16,0,0,0-1119,63.47Z" transform="translate(1127.72 313.72)"/><path class="cls-14" d="M-525.59-293.75a3.17,3.17,0,0,0-3.17-3.17,3.16,3.16,0,0,0-3.16,3.17,3.15,3.15,0,0,0,3.16,3.16A3.16,3.16,0,0,0-525.59-293.75Z" transform="translate(1127.72 313.72)"/><path class="cls-15" d="M-792.27-284.26a3.16,3.16,0,0,0-3.16-3.16,3.17,3.17,0,0,0-3.17,3.16,3.17,3.17,0,0,0,3.17,3.17A3.16,3.16,0,0,0-792.27-284.26Z" transform="translate(1127.72 313.72)"/><path class="cls-16" d="M-991.46,140.81a3.17,3.17,0,0,0-3.17-3.16,3.16,3.16,0,0,0-3.16,3.16,3.16,3.16,0,0,0,3.16,3.17A3.17,3.17,0,0,0-991.46,140.81Z" transform="translate(1127.72 313.72)"/><path class="cls-17" d="M-464.92,39.79a3.17,3.17,0,0,0-3.16-3.16,3.17,3.17,0,0,0-3.17,3.16A3.17,3.17,0,0,0-468.08,43,3.17,3.17,0,0,0-464.92,39.79Z" transform="translate(1127.72 313.72)"/><line class="cls-18" x1="672.69" y1="412.17" x2="672.69" y2="412.17"/><line class="cls-19" x1="11.18" y1="150.84" x2="11.18" y2="150.84"/><line class="cls-20" x1="517.84" y1="19.97" x2="517.84" y2="19.97"/><line class="cls-21" x1="-8.55" y1="447.59" x2="-8.55" y2="447.59"/><line class="cls-22" x1="218.86" y1="16.8" x2="218.86" y2="16.8"/><line class="cls-23" x1="681.4" y1="19.97" x2="681.4" y2="19.97"/><line class="cls-24" x1="347.47" y1="462.65" x2="347.47" y2="462.65"/><line class="cls-25" x1="24.14" y1="17.2" x2="16.23" y2="29.07"/><path class="cls-26" d="M-999.38,110c123.1,59.62,328.59,15.76,405-44.79C-495-13.54-471.06-198.24-574-260.61c-58.63-35.51-153.42-27.23-229.53,76-70.66,95.82-122,49.39-201.73,77.48C-1106.18-71.62-1104.58,59-999.38,110Z" transform="translate(1127.72 313.72)"/><rect class="cls-27" x="170.39" y="121.65" width="371.64" height="254.75" rx="12"/><path class="cls-27" d="M-644-199.7c-1.28-12.52,4.71-29.84,13.5-28.28s-2.18,15.15,5.12,29.22Z" transform="translate(1127.72 313.72)"/><path class="cls-28" d="M-641.56-192.07s14.22-14.05,21.6-39.11,40.09-25.85,46.16,5.8-22.42,76.09-22.42,76.09Z" transform="translate(1127.72 313.72)"/><path class="cls-29" d="M-594.31-223.77s1.84,30.1-25,52.7" transform="translate(1127.72 313.72)"/><path class="cls-29" d="M-553.36-216.2s4.74,16.45-7.52,28.82" transform="translate(1127.72 313.72)"/><path class="cls-29" d="M-944.15,47.52s3.09,14.84-4.82,27.89" transform="translate(1127.72 313.72)"/><path class="cls-29" d="M-959.32,47.52s-.44,11.85-6.52,22" transform="translate(1127.72 313.72)"/><path class="cls-28" d="M-811.52,57.34c19.21,24.56,38.73,23.79,62.2,23.7s50.12,6.47,61.92,21.59,47.45,19.29,45.84-17-54.16-68.83-96.52-67.4-70.84-5-70.84-5Z" transform="translate(1127.72 313.72)"/><path class="cls-29" d="M-810.18,33.65C-744.32,67.63-698.26,45.39-670,81" transform="translate(1127.72 313.72)"/><path class="cls-29" d="M-625.36,85.17s10.57,7.25,10.23,25.85" transform="translate(1127.72 313.72)"/><path class="cls-30" d="M-941.07-196.68c-8.29-17.09-6.25-44,5.52-43.73s.16,28.91,15.72,41.23Z" transform="translate(1127.72 313.72)"/><path class="cls-28" d="M-982.59-162.88s-46.29-84.12-2-97.18c37.25-11,29.41,62.18,69.69,78.36Z" transform="translate(1127.72 313.72)"/><path class="cls-29" d="M-980.62-237.9s5.32,37.45,29.56,66.26" transform="translate(1127.72 313.72)"/><path class="cls-29" d="M-1007.52-67.86s22.44,6.32,41.68,2.6" transform="translate(1127.72 313.72)"/><path class="cls-29" d="M-1017-186.75s13,5.37,19.38,18.84" transform="translate(1127.72 313.72)"/><path class="cls-29" d="M-897.21-225.64s-6,10.46,0,28.57" transform="translate(1127.72 313.72)"/><rect class="cls-31" x="157.19" y="110.65" width="371.64" height="254.75" rx="12"/><rect class="cls-32" x="149.39" y="110.65" width="371.64" height="254.75" rx="12"/><path class="cls-33" d="M-966.34,51.68H-618.7a12,12,0,0,0,12-12V27.45H-978.34V39.68A12,12,0,0,0-966.34,51.68Z" transform="translate(1127.72 313.72)"/><path class="cls-34" d="M-786.6,39.56a5.92,5.92,0,0,0-5.92-5.91,5.92,5.92,0,0,0-5.91,5.91,5.92,5.92,0,0,0,5.91,5.92A5.92,5.92,0,0,0-786.6,39.56Z" transform="translate(1127.72 313.72)"/><path class="cls-33" d="M-618.7-203.07H-966.34a12,12,0,0,0-12,12H-606.7A12,12,0,0,0-618.7-203.07Z" transform="translate(1127.72 313.72)"/><rect class="cls-35" x="174.15" y="142.65" width="134.37" height="91.27"/><rect class="cls-36" x="174.15" y="230.65" width="134.37" height="3.27"/><rect class="cls-29" x="180.49" y="148.98" width="6.16" height="6.16"/><line class="cls-29" x1="198.98" y1="155.15" x2="192.82" y2="155.15"/><polyline class="cls-29" points="196.97 208.06 215.06 173.03 232.73 199.66 253.58 178.65 266.98 194.33 288.21 204.5"/><path class="cls-32" d="M-928.54-105.66a2.21,2.21,0,0,0-2.21-2.21,2.21,2.21,0,0,0-2.22,2.21,2.21,2.21,0,0,0,2.22,2.21A2.21,2.21,0,0,0-928.54-105.66Z" transform="translate(1127.72 313.72)"/><path class="cls-32" d="M-871.93-135.07a2.21,2.21,0,0,0-2.21-2.21,2.21,2.21,0,0,0-2.21,2.21,2.21,2.21,0,0,0,2.21,2.21A2.21,2.21,0,0,0-871.93-135.07Z" transform="translate(1127.72 313.72)"/><circle class="cls-32" cx="232.73" cy="199.66" r="2.21"/><path class="cls-32" d="M-858.54-119.38a2.21,2.21,0,0,0-2.21-2.21,2.21,2.21,0,0,0-2.21,2.21,2.21,2.21,0,0,0,2.21,2.21A2.21,2.21,0,0,0-858.54-119.38Z" transform="translate(1127.72 313.72)"/><path class="cls-32" d="M-910.46-140.69a2.21,2.21,0,0,0-2.21-2.21,2.21,2.21,0,0,0-2.21,2.21,2.21,2.21,0,0,0,2.21,2.21A2.21,2.21,0,0,0-910.46-140.69Z" transform="translate(1127.72 313.72)"/><path class="cls-32" d="M-837.31-109.22a2.21,2.21,0,0,0-2.21-2.21,2.21,2.21,0,0,0-2.21,2.21,2.21,2.21,0,0,0,2.21,2.21A2.21,2.21,0,0,0-837.31-109.22Z" transform="translate(1127.72 313.72)"/><line class="cls-29" x1="196.97" y1="219.19" x2="288.21" y2="219.19"/><rect class="cls-27" x="266.76" y="148.98" width="35.03" height="6.16"/><rect class="cls-30" x="283.92" y="158.08" width="17.87" height="6.16"/><rect class="cls-35" x="174.15" y="242.12" width="134.37" height="79.04"/><rect class="cls-36" x="174.15" y="317.89" width="134.37" height="3.27"/><rect class="cls-29" x="180.49" y="248.46" width="6.16" height="6.16"/><line class="cls-29" x1="198.98" y1="254.62" x2="192.82" y2="254.62"/><rect class="cls-30" x="186.65" y="262.88" width="115.13" height="4.42"/><rect class="cls-27" x="186.65" y="273.34" width="115.13" height="4.42"/><rect class="cls-27" x="186.65" y="283.81" width="71.35" height="4.42"/><rect class="cls-30" x="186.65" y="294.28" width="51.62" height="4.42"/><rect class="cls-30" x="243.79" y="294.28" width="29" height="4.42"/><rect class="cls-27" x="186.65" y="304.74" width="31.4" height="4.42"/><rect class="cls-37" x="322.72" y="142.65" width="173.54" height="22.6"/><rect class="cls-36" x="322.72" y="165.25" width="173.54" height="3.27"/><line class="cls-29" x1="329.06" y1="148.98" x2="335.22" y2="148.98"/><line class="cls-29" x1="341.39" y1="148.98" x2="347.55" y2="148.98"/><rect class="cls-29" x="329.06" y="146.59" width="6.16" height="2.39"/><rect class="cls-30" x="335.22" y="154.39" width="61.64" height="4.42"/><rect class="cls-27" x="400.63" y="154.39" width="25.87" height="4.42"/><rect class="cls-37" x="322.72" y="173.1" width="173.54" height="22.6"/><rect class="cls-36" x="322.72" y="195.7" width="173.54" height="3.27"/><line class="cls-29" x1="329.06" y1="179.44" x2="335.22" y2="179.44"/><line class="cls-29" x1="341.39" y1="179.44" x2="347.55" y2="179.44"/><rect class="cls-29" x="329.06" y="177.05" width="6.16" height="2.39"/><rect class="cls-30" x="335.22" y="184.84" width="28.18" height="4.42"/><rect class="cls-30" x="397.87" y="184.84" width="82.29" height="4.42"/><rect class="cls-27" x="368.09" y="184.84" width="25.87" height="4.42"/><rect class="cls-37" x="322.72" y="203.55" width="173.54" height="22.6"/><rect class="cls-36" x="322.72" y="226.15" width="173.54" height="3.27"/><line class="cls-29" x1="329.06" y1="209.89" x2="335.22" y2="209.89"/><line class="cls-29" x1="341.39" y1="209.89" x2="347.55" y2="209.89"/><rect class="cls-29" x="329.06" y="207.5" width="6.16" height="2.39"/><rect class="cls-30" x="335.22" y="215.29" width="61.64" height="4.42"/><rect class="cls-37" x="322.72" y="234.01" width="173.54" height="22.6"/><rect class="cls-36" x="322.72" y="256.6" width="173.54" height="3.27"/><line class="cls-29" x1="329.06" y1="240.34" x2="335.22" y2="240.34"/><line class="cls-29" x1="341.39" y1="240.34" x2="347.55" y2="240.34"/><rect class="cls-29" x="329.06" y="237.95" width="6.16" height="2.39"/><rect class="cls-30" x="335.22" y="245.75" width="43.18" height="4.42"/><rect class="cls-27" x="383.4" y="245.75" width="72.69" height="4.42"/><rect class="cls-27" x="461.56" y="245.75" width="11.97" height="4.42"/><rect class="cls-37" x="322.72" y="269.53" width="173.54" height="51.63"/><rect class="cls-36" x="322.72" y="317.89" width="173.54" height="3.27"/><rect class="cls-29" x="329.06" y="275.87" width="6.16" height="6.16"/><line class="cls-29" x1="347.55" y1="282.03" x2="341.39" y2="282.03"/><rect class="cls-30" x="355.63" y="282.89" width="24.92" height="24.92"/><line class="cls-29" x1="361.92" y1="301.52" x2="374.26" y2="289.18"/><line class="cls-29" x1="374.26" y1="301.52" x2="361.92" y2="289.18"/><rect class="cls-30" x="389.64" y="282.89" width="24.92" height="24.92"/><line class="cls-29" x1="395.93" y1="301.52" x2="408.28" y2="289.18"/><rect class="cls-30" x="423.66" y="282.89" width="24.92" height="24.92"/><rect class="cls-29" x="431.1" y="289.76" width="11.18" height="11.18"/><rect class="cls-30" x="457.67" y="282.89" width="24.92" height="24.92"/><line class="cls-29" x1="464.54" y1="289.76" x2="464.54" y2="289.76"/><line class="cls-29" x1="475.73" y1="289.76" x2="475.73" y2="289.76"/><line class="cls-29" x1="464.54" y1="300.94" x2="464.54" y2="300.94"/><line class="cls-29" x1="475.73" y1="300.94" x2="475.73" y2="300.94"/><g class="cls-38"><rect class="cls-30" x="447.32" y="252.86" width="158.81" height="158.81" rx="7.2"/><rect class="cls-39" x="447.32" y="252.86" width="158.81" height="158.81" rx="7.2"/></g><rect class="cls-27" x="440.32" y="245.86" width="158.81" height="158.81" rx="7.2"/><rect class="cls-29" x="440.32" y="245.86" width="158.81" height="158.81" rx="7.2"/><line class="cls-29" x1="449.65" y1="260.18" x2="455.34" y2="254.49"/><line class="cls-29" x1="449.65" y1="254.49" x2="455.34" y2="260.18"/><path class="cls-30" d="M-656.46-14.6A12.08,12.08,0,0,0-668.54-2.53V.4h24.15V-2.53A12.08,12.08,0,0,0-656.46-14.6Z" transform="translate(1127.72 313.72)"/><path class="cls-30" d="M-649.61-23.86a6.85,6.85,0,0,0-6.85-6.85,6.85,6.85,0,0,0-6.85,6.85A6.85,6.85,0,0,0-656.46-17,6.86,6.86,0,0,0-649.61-23.86Z" transform="translate(1127.72 313.72)"/><rect class="cls-29" x="455.34" y="271.75" width="31.85" height="42.37"/><rect class="cls-30" x="-632.64" y="-14.87" width="35.03" height="6.16" transform="translate(-102.53 290.15) rotate(180)"/><rect class="cls-30" x="-632.64" y="-5.77" width="17.87" height="6.16" transform="translate(-119.69 308.35) rotate(180)"/><path class="cls-29" d="M-543.61-3.36a3.76,3.76,0,0,0-3.76-3.76,3.76,3.76,0,0,0-3.76,3.76A3.76,3.76,0,0,0-547.37.4,3.76,3.76,0,0,0-543.61-3.36Z" transform="translate(1127.72 313.72)"/><rect class="cls-40" x="455.34" y="323.98" width="128.78" height="25.32"/><rect class="cls-30" x="462.16" y="329.72" width="115.13" height="4.42"/><rect class="cls-27" x="462.16" y="340.18" width="43.52" height="4.42"/><rect class="cls-40" x="455.34" y="359.16" width="128.78" height="25.32"/><rect class="cls-30" x="462.16" y="364.9" width="52.68" height="4.42"/><rect class="cls-27" x="518.74" y="364.9" width="58.56" height="4.42"/><rect class="cls-27" x="486.17" y="375.37" width="42.06" height="4.42"/><rect class="cls-27" x="462.16" y="375.37" width="20.12" height="4.42"/><path class="cls-29" d="M-681.66,16.06c-15.3,0-14.48-12.84-31.42-12.84h0A8.25,8.25,0,0,1-721.33-5V-8.32" transform="translate(1127.72 313.72)"/><path class="cls-31" d="M-676,16.06h0a2.85,2.85,0,0,0-2.85-2.84h0a2.84,2.84,0,0,0-2.84,2.84h0a2.85,2.85,0,0,0,2.84,2.85h0A2.86,2.86,0,0,0-676,16.06Z" transform="translate(1127.72 313.72)"/><path class="cls-31" d="M-718.49-11.16h0A2.84,2.84,0,0,0-721.33-14h0a2.84,2.84,0,0,0-2.84,2.84h0a2.84,2.84,0,0,0,2.84,2.84h0A2.84,2.84,0,0,0-718.49-11.16Z" transform="translate(1127.72 313.72)"/><g class="cls-38"><rect class="cls-30" x="516.39" y="124.65" width="110.9" height="110.9" rx="7.2"/><rect class="cls-39" x="516.39" y="124.65" width="110.9" height="110.9" rx="7.2"/></g><rect class="cls-27" x="509.39" y="117.65" width="110.9" height="110.9" rx="7.2"/><rect class="cls-29" x="509.39" y="117.65" width="110.9" height="110.9" rx="7.2"/><line class="cls-29" x1="518.72" y1="131.96" x2="524.41" y2="126.28"/><line class="cls-29" x1="518.72" y1="126.28" x2="524.41" y2="131.96"/><text x="1127.72" y="313.72"/><path class="cls-29" d="M-642.26-165c16.94,0,16.12,12.85,31.42,12.85" transform="translate(1127.72 313.72)"/><path class="cls-31" d="M-605.16-152.13h0A2.85,2.85,0,0,0-608-155h0a2.85,2.85,0,0,0-2.84,2.85h0a2.84,2.84,0,0,0,2.84,2.84h0A2.84,2.84,0,0,0-605.16-152.13Z" transform="translate(1127.72 313.72)"/><path class="cls-31" d="M-642.26-165h0a2.84,2.84,0,0,0-2.84-2.84h0a2.84,2.84,0,0,0-2.84,2.84h0a2.85,2.85,0,0,0,2.84,2.85h0A2.85,2.85,0,0,0-642.26-165Z" transform="translate(1127.72 313.72)"/><path class="cls-31" d="M-605.16-134.52h0a2.85,2.85,0,0,0-2.84-2.85h0a2.85,2.85,0,0,0-2.84,2.85h0a2.84,2.84,0,0,0,2.84,2.84h0A2.84,2.84,0,0,0-605.16-134.52Z" transform="translate(1127.72 313.72)"/><path class="cls-31" d="M-642.26-134.52h0a2.85,2.85,0,0,0-2.84-2.85h0a2.85,2.85,0,0,0-2.84,2.85h0a2.84,2.84,0,0,0,2.84,2.84h0A2.84,2.84,0,0,0-642.26-134.52Z" transform="translate(1127.72 313.72)"/><line class="cls-29" x1="485.46" y1="179.19" x2="516.88" y2="179.19"/><path class="cls-29" d="M-642.26-104.07c16.94,0,16.12-12.84,31.42-12.84" transform="translate(1127.72 313.72)"/><path class="cls-31" d="M-605.16-116.91h0a2.84,2.84,0,0,1-2.84,2.84h0a2.84,2.84,0,0,1-2.84-2.84h0a2.84,2.84,0,0,1,2.84-2.84h0A2.84,2.84,0,0,1-605.16-116.91Z" transform="translate(1127.72 313.72)"/><path class="cls-31" d="M-642.26-104.07h0a2.84,2.84,0,0,1-2.84,2.84h0a2.84,2.84,0,0,1-2.84-2.84h0a2.84,2.84,0,0,1,2.84-2.84h0A2.84,2.84,0,0,1-642.26-104.07Z" transform="translate(1127.72 313.72)"/><g class="cls-38"><rect class="cls-30" x="204.25" y="356.77" width="125.99" height="68.29" rx="7.2"/><rect class="cls-39" x="204.25" y="356.77" width="125.99" height="68.29" rx="7.2"/></g><rect class="cls-27" x="197.25" y="349.77" width="125.99" height="68.29" rx="7.2"/><rect class="cls-29" x="197.25" y="349.77" width="125.99" height="68.29" rx="7.2"/><line class="cls-29" x1="206.58" y1="364.08" x2="212.27" y2="358.4"/><line class="cls-29" x1="206.58" y1="358.4" x2="212.27" y2="364.08"/><text x="1127.72" y="313.72"/><path class="cls-29" d="M-867.14,39.79c0-15.3-12.84-14.48-12.84-31.42h0A8.26,8.26,0,0,0-888.23.12h-3.29" transform="translate(1127.72 313.72)"/><rect class="cls-31" x="257.74" y="353.51" width="5.68" height="5.68" rx="2.84"/><path class="cls-31" d="M-894.37,3h0A2.84,2.84,0,0,1-897.21.12h0a2.84,2.84,0,0,1,2.84-2.84h0A2.85,2.85,0,0,1-891.52.12h0A2.85,2.85,0,0,1-894.37,3Z" transform="translate(1127.72 313.72)"/><g class="cls-38"><rect class="cls-30" x="350.83" y="390.29" width="73.45" height="46.44" rx="7.2"/><rect class="cls-39" x="350.83" y="390.29" width="73.45" height="46.44" rx="7.2"/></g><rect class="cls-27" x="343.83" y="383.29" width="73.45" height="46.44" rx="7.2"/><rect class="cls-29" x="343.83" y="383.29" width="73.45" height="46.44" rx="7.2"/><line class="cls-29" x1="353.16" y1="397.6" x2="358.85" y2="391.92"/><line class="cls-29" x1="353.16" y1="391.92" x2="358.85" y2="397.6"/><path class="cls-31" d="M-757,102.63a2.67,2.67,0,0,0-2.66-2.67,2.68,2.68,0,0,0-2.67,2.67,2.67,2.67,0,0,0,2.67,2.66A2.66,2.66,0,0,0-757,102.63Z" transform="translate(1127.72 313.72)"/><path class="cls-31" d="M-729.18,83a2.67,2.67,0,0,0-2.66-2.67A2.68,2.68,0,0,0-734.51,83a2.67,2.67,0,0,0,2.67,2.66A2.66,2.66,0,0,0-729.18,83Z" transform="translate(1127.72 313.72)"/><path class="cls-29" d="M-759.68,102.63s23.19,6.13,27.84-19.68" transform="translate(1127.72 313.72)"/><path class="cls-29" d="M-811.52,82.77c16.94,0,16.12,12.84,31.42,12.84" transform="translate(1127.72 313.72)"/><path class="cls-31" d="M-774.42,95.61h0a2.84,2.84,0,0,0-2.84-2.84h0a2.84,2.84,0,0,0-2.84,2.84h0a2.84,2.84,0,0,0,2.84,2.84h0A2.84,2.84,0,0,0-774.42,95.61Z" transform="translate(1127.72 313.72)"/><path class="cls-31" d="M-811.52,82.77h0a2.85,2.85,0,0,0-2.85-2.84h0a2.84,2.84,0,0,0-2.84,2.84h0a2.84,2.84,0,0,0,2.84,2.84h0A2.85,2.85,0,0,0-811.52,82.77Z" transform="translate(1127.72 313.72)"/><g class="cls-38"><rect class="cls-30" x="100.08" y="265.88" width="69.61" height="111.74" rx="7.66"/><rect class="cls-39" x="100.08" y="265.88" width="69.61" height="111.74" rx="7.66"/></g><rect class="cls-27" x="93.08" y="258.88" width="69.61" height="111.74" rx="7.66"/><rect class="cls-29" x="93.08" y="258.88" width="69.61" height="111.74" rx="7.66"/><line class="cls-29" x1="102.41" y1="273.19" x2="108.1" y2="267.51"/><line class="cls-29" x1="102.41" y1="267.51" x2="108.1" y2="273.19"/><path class="cls-30" d="M-976.52-13a.76.76,0,0,0-.25-.52.74.74,0,0,0-.55-.19c-14.4.85-21.79-12-21.87-12.15a.78.78,0,0,0-1.31,0c-.07.13-7.47,13-21.86,12.15a.79.79,0,0,0-.55.19.76.76,0,0,0-.25.52c0,.35-1.32,34.43,23.2,38.25h.23C-975.2,21.44-976.51-12.64-976.52-13Z" transform="translate(1127.72 313.72)"/><path class="cls-29" d="M-941.23-39.13c-16.94,0-16.12,12.84-31.42,12.84" transform="translate(1127.72 313.72)"/><path class="cls-31" d="M-978.34-26.29h0a2.84,2.84,0,0,1,2.84-2.84h0a2.85,2.85,0,0,1,2.85,2.84h0a2.86,2.86,0,0,1-2.85,2.85h0A2.85,2.85,0,0,1-978.34-26.29Z" transform="translate(1127.72 313.72)"/><path class="cls-31" d="M-941.23-39.13h0A2.84,2.84,0,0,1-938.39-42h0a2.84,2.84,0,0,1,2.84,2.84h0a2.84,2.84,0,0,1-2.84,2.84h0A2.84,2.84,0,0,1-941.23-39.13Z" transform="translate(1127.72 313.72)"/><g class="cls-38"><rect class="cls-30" x="100.08" y="144.18" width="69.61" height="94.97" rx="7.2"/><rect class="cls-39" x="100.08" y="144.18" width="69.61" height="94.97" rx="7.2"/></g><rect class="cls-27" x="93.08" y="137.18" width="69.61" height="94.97" rx="7.2"/><rect class="cls-29" x="93.08" y="137.18" width="69.61" height="94.97" rx="7.2"/><line class="cls-29" x1="102.41" y1="151.49" x2="108.1" y2="145.81"/><line class="cls-29" x1="102.41" y1="145.81" x2="108.1" y2="151.49"/><text class="cls-41" transform="translate(100.25 196.38)">&lt;/&gt;</text><path class="cls-29" d="M-941.23-140.42c-16.94,0-16.12-12.84-31.42-12.84" transform="translate(1127.72 313.72)"/><path class="cls-31" d="M-978.34-153.26h0a2.85,2.85,0,0,0,2.84,2.85h0a2.86,2.86,0,0,0,2.85-2.85h0a2.85,2.85,0,0,0-2.85-2.84h0A2.84,2.84,0,0,0-978.34-153.26Z" transform="translate(1127.72 313.72)"/><path class="cls-31" d="M-941.23-140.42h0a2.85,2.85,0,0,0,2.84,2.85h0a2.85,2.85,0,0,0,2.84-2.85h0a2.84,2.84,0,0,0-2.84-2.84h0A2.84,2.84,0,0,0-941.23-140.42Z" transform="translate(1127.72 313.72)"/><g class="cls-38"><rect class="cls-30" x="209.4" y="112.9" width="73.45" height="46.44" rx="7.2"/><rect class="cls-39" x="209.4" y="112.9" width="73.45" height="46.44" rx="7.2"/></g><rect class="cls-27" x="202.4" y="105.9" width="73.45" height="46.44" rx="7.2"/><rect class="cls-29" x="202.4" y="105.9" width="73.45" height="46.44" rx="7.2"/><line class="cls-29" x1="211.74" y1="120.22" x2="217.42" y2="114.53"/><line class="cls-29" x1="211.74" y1="114.53" x2="217.42" y2="120.22"/><text class="cls-42" transform="translate(217.69 137.56)">J<tspan class="cls-43" x="7.77" y="0">A</tspan><tspan class="cls-44" x="19.51" y="0">V</tspan><tspan x="30.03" y="0">A</tspan></text><g class="cls-38"><rect class="cls-30" x="299.99" y="124.36" width="162.62" height="20.7" rx="7.2"/><rect class="cls-39" x="299.99" y="124.36" width="162.62" height="20.7" rx="7.2"/></g><rect class="cls-27" x="294.4" y="118.77" width="162.62" height="20.7" rx="7.2"/><rect class="cls-29" x="294.4" y="118.77" width="162.62" height="20.7" rx="7.2"/><path class="cls-45" d="M-682.71-188H-790.54a3.38,3.38,0,0,0-3.38,3.38h0a3.38,3.38,0,0,0,3.38,3.38h107.83a3.38,3.38,0,0,0,3.38-3.38h0A3.39,3.39,0,0,0-682.71-188Z" transform="translate(1127.72 313.72)"/><path class="cls-30" d="M-703.75-188h-86.79a3.38,3.38,0,0,0-3.38,3.38,3.38,3.38,0,0,0,3.38,3.38h86.79Z" transform="translate(1127.72 313.72)"/><rect class="cls-29" x="318.72" y="126.34" width="5.68" height="5.68"/><g class="cls-38"><rect class="cls-30" x="299.99" y="95.53" width="162.62" height="20.7" rx="7.2"/><rect class="cls-39" x="299.99" y="95.53" width="162.62" height="20.7" rx="7.2"/></g><rect class="cls-27" x="294.4" y="89.95" width="162.62" height="20.7" rx="7.2"/><rect class="cls-29" x="294.4" y="89.95" width="162.62" height="20.7" rx="7.2"/><path class="cls-46" d="M-682.71-216.8H-790.54a3.38,3.38,0,0,0-3.38,3.38h0a3.38,3.38,0,0,0,3.38,3.38h107.83a3.38,3.38,0,0,0,3.38-3.38h0A3.38,3.38,0,0,0-682.71-216.8Z" transform="translate(1127.72 313.72)"/><path class="cls-30" d="M-766.28-216.8h-24.26a3.38,3.38,0,0,0-3.38,3.38,3.38,3.38,0,0,0,3.38,3.38h24.26Z" transform="translate(1127.72 313.72)"/><rect class="cls-29" x="318.72" y="97.51" width="5.68" height="5.68"/><g class="cls-38"><rect class="cls-30" x="299.99" y="153.18" width="162.62" height="20.7" rx="7.2"/><rect class="cls-39" x="299.99" y="153.18" width="162.62" height="20.7" rx="7.2"/></g><rect class="cls-27" x="294.4" y="147.6" width="162.62" height="20.7" rx="7.2"/><rect class="cls-29" x="294.4" y="147.6" width="162.62" height="20.7" rx="7.2"/><path class="cls-47" d="M-682.71-159.15H-790.54a3.38,3.38,0,0,0-3.38,3.38h0a3.38,3.38,0,0,0,3.38,3.38h107.83a3.39,3.39,0,0,0,3.38-3.38h0A3.38,3.38,0,0,0-682.71-159.15Z" transform="translate(1127.72 313.72)"/><path class="cls-30" d="M-686.82-159.15H-790.54a3.38,3.38,0,0,0-3.38,3.38,3.38,3.38,0,0,0,3.38,3.38h103.72Z" transform="translate(1127.72 313.72)"/><rect class="cls-29" x="318.72" y="155.16" width="5.68" height="5.68"/><path class="cls-29" d="M-826.51-212.36c-16.94,0-16.12,12.84-31.42,12.84" transform="translate(1127.72 313.72)"/><path class="cls-31" d="M-863.61-199.52h0a2.84,2.84,0,0,1,2.84-2.84h0a2.84,2.84,0,0,1,2.84,2.84h0a2.84,2.84,0,0,1-2.84,2.84h0A2.84,2.84,0,0,1-863.61-199.52Z" transform="translate(1127.72 313.72)"/><path class="cls-31" d="M-826.51-212.36h0a2.84,2.84,0,0,1,2.84-2.84h0a2.84,2.84,0,0,1,2.84,2.84h0a2.84,2.84,0,0,1-2.84,2.84h0A2.84,2.84,0,0,1-826.51-212.36Z" transform="translate(1127.72 313.72)"/><path class="cls-31" d="M-863.61-183.91h0a2.84,2.84,0,0,1,2.84-2.84h0a2.84,2.84,0,0,1,2.84,2.84h0a2.84,2.84,0,0,1-2.84,2.84h0A2.84,2.84,0,0,1-863.61-183.91Z" transform="translate(1127.72 313.72)"/><path class="cls-31" d="M-826.51-183.91h0a2.84,2.84,0,0,1,2.84-2.84h0a2.84,2.84,0,0,1,2.84,2.84h0a2.84,2.84,0,0,1-2.84,2.84h0A2.84,2.84,0,0,1-826.51-183.91Z" transform="translate(1127.72 313.72)"/><line class="cls-29" x1="301.21" y1="129.81" x2="269.79" y2="129.81"/><path class="cls-29" d="M-826.51-156.46c-16.94,0-16.12-12.84-31.42-12.84" transform="translate(1127.72 313.72)"/><path class="cls-31" d="M-863.61-169.3h0a2.84,2.84,0,0,0,2.84,2.84h0a2.84,2.84,0,0,0,2.84-2.84h0a2.84,2.84,0,0,0-2.84-2.84h0A2.84,2.84,0,0,0-863.61-169.3Z" transform="translate(1127.72 313.72)"/><path class="cls-31" d="M-826.51-156.46h0a2.85,2.85,0,0,0,2.84,2.85h0a2.85,2.85,0,0,0,2.84-2.85h0a2.84,2.84,0,0,0-2.84-2.84h0A2.84,2.84,0,0,0-826.51-156.46Z" transform="translate(1127.72 313.72)"/></g></g></svg>