<svg width="328" height="468" viewBox="0 0 328 468" fill="none" xmlns="http://www.w3.org/2000/svg">
<path d="M301.2 145.006H248.923V468H301.2V145.006Z" fill="white"/>
<path d="M241.329 33.8308L241.092 72.0875H214.033L209.251 72.2063C192.221 72.6716 174.143 75.2359 155.598 79.7903C138.45 84.107 123.995 90.5228 111.391 99.6216C87.1344 116.997 74.6495 139.393 73.1347 167.967C72.7882 174.036 72.5506 179.976 72.204 185.927C71.9664 191.996 71.6199 198.055 71.2734 204.006C70.4615 216.837 67.5407 228.619 62.4121 238.995C59.3825 245.064 56.2341 251.005 53.0856 257.074L50.8678 261.509L64.1646 262.212C71.511 262.678 79.9068 269.44 80.2632 277.846L80.6098 282.865C80.7286 286.251 80.9563 289.509 80.9563 292.895L81.5405 351.795C81.5405 357.389 82.4712 362.062 84.3424 366.141C85.9761 369.874 88.4215 371.973 91.6888 372.903C93.7878 373.487 95.8867 373.715 98.1045 373.715C104.748 373.953 111.401 374.062 118.045 374.18C124.688 374.18 131.341 374.299 137.985 374.527C143.47 374.646 148.252 374.992 152.569 375.814C159.915 377.329 165.4 384.329 165.4 392.022L165.866 462C165.984 463.05 165.984 463.634 165.984 464.099H127.728C127.609 453.486 127.609 442.991 127.609 432.377C127.609 425.843 127.609 419.318 127.49 412.784C123.876 412.665 120.609 412.546 117.461 412.546C109.411 412.308 101.015 412.081 92.7383 411.378C73.1446 409.863 58.6795 400.18 49.8183 382.685C43.8679 371.022 43.0561 359.121 43.0561 348.042L43.1749 299.994L37.5809 299.756C31.4028 299.637 25.3337 299.41 19.1556 299.41C12.9775 300.113 6.90827 296.38 3.29448 290.776C-0.438118 285.172 -1.02223 278.41 1.66089 272.579C8.77956 256.717 16.1259 242.599 23.9377 229.659C29.5316 220.56 32.4524 211.699 33.0365 202.719L33.383 198.402C33.8483 191.055 34.3137 183.709 34.4325 176.363C34.779 153.502 39.5611 133.443 48.7787 115.017C60.7884 91.2257 79.4514 72.3251 104.411 58.9194C124.243 48.1869 146.282 41.0782 171.945 36.9892C185.944 35.009 197.716 33.9595 209.033 33.9595L214.053 33.8407H241.329V33.8308Z" fill="#49ABB2"/>
<path d="M313.08 16.0986C303.397 5.95033 290.338 0.237619 276.457 0L273.893 0C245.082 0.584147 222.458 23.6728 222.458 52.6029C222.458 66.6026 228.052 79.8994 238.092 89.6912C248.003 99.4831 261.072 104.849 275.646 104.849H276.111C304.457 104.265 327.08 81.6419 327.664 53.2959C327.892 39.4249 322.763 26.1281 313.08 16.0986Z" fill="white"/>
</svg>
