<svg width="84" height="119" viewBox="0 0 84 119" fill="none" xmlns="http://www.w3.org/2000/svg">
<path d="M74.9135 63.0683C74.5918 62.7309 73.9954 62.107 73.8463 61.8873C73.3127 61.0594 72.7673 60.2355 72.218 59.4115C70.7348 57.175 69.3341 55.0641 68.3571 53.0435C67.5253 51.321 66.8308 49.2532 66.0853 47.0442C65.6145 45.6474 65.128 44.1996 64.5669 42.7126C64.0647 41.3825 63.4879 40.1269 62.8405 38.9498C69.3106 34.0296 72.728 26.5198 72.7673 17.0207V16.5185L72.7202 16.0202C72.677 15.5925 72.6417 15.1609 72.6064 14.7293L72.6025 14.6743C72.5044 13.5404 72.3945 12.2535 72.2101 10.9194C71.0997 2.86032 65.0495 0 60.2038 0C59.372 0 58.5167 0.0745488 57.5868 0.223647C50.0417 1.45174 43.1832 5.62255 38.2786 11.9788C34.4413 16.9501 32.1539 22.8747 31.7223 28.8896C25.3581 31.4518 20.7165 36.7055 18.2171 44.2192C18.1779 44.3369 18.1308 44.4547 18.0877 44.5724L18.0524 44.6705C17.8444 45.2119 17.5619 45.9535 17.3186 46.8402C15.553 53.2357 12.5397 58.7327 8.10598 63.6451C5.06909 67.0116 2.67959 71.2452 1.37303 75.569C-0.953681 83.2711 -0.306285 91.2556 3.18574 98.0553C6.65815 104.816 12.8339 110.167 20.5752 113.122C24.4439 114.601 28.6108 115.59 33.2486 116.135L33.7468 118.843L43.5677 117.053C45.1175 116.771 46.6713 116.532 48.327 116.277C52.235 115.672 56.2763 115.052 60.4197 113.848C71.5235 110.619 79.5002 102.787 82.3095 92.3621C85.1032 82.0037 82.2664 70.7782 74.9135 63.0683Z" fill="#171717"/>
<path d="M41.6688 106.635C35.6892 106.533 29.7842 105.929 24.142 103.775C13.1598 99.5804 7.67061 89.3279 10.9468 78.4674C11.8257 75.5521 13.4893 72.6172 15.5296 70.3572C21.0227 64.2678 24.7894 57.3622 26.9591 49.511C27.1592 48.7891 27.4731 48.0985 27.7125 47.3844C30.667 38.5052 37.1645 35.794 46.4674 37.7637C51.0306 38.7289 53.6241 42.0836 55.2092 46.2583C56.6139 49.9622 57.6301 53.8427 59.3447 57.3936C61.0201 60.8699 63.3311 64.0441 65.4303 67.3046C66.0541 68.2738 66.8702 69.137 67.6707 69.9766C77.2325 80.0015 75.255 99.1135 57.6262 104.238C52.4901 105.733 47.0677 106.247 41.7747 107.208C41.7394 107.02 41.7041 106.827 41.6688 106.635Z" fill="url(#paint0_linear_254_28347)"/>
<path d="M62.7624 16.9803C62.7113 29.6143 54.6326 34.3737 44.2193 35.0799C42.6342 35.1898 41.8651 34.2756 41.7239 32.7218C40.7744 22.1869 48.7903 11.7932 59.1919 10.1061C61.2439 9.77257 62.0208 10.2826 62.2954 12.2876C62.5112 13.8414 62.6093 15.4147 62.7624 16.9803Z" fill="url(#paint1_linear_254_28347)"/>
<defs>
<linearGradient id="paint0_linear_254_28347" x1="84.8791" y1="100.106" x2="2.43707" y2="59.1813" gradientUnits="userSpaceOnUse">
<stop stop-color="#FB9A33"/>
<stop offset="1" stop-color="#03BDCE"/>
</linearGradient>
<linearGradient id="paint1_linear_254_28347" x1="66.6058" y1="32.5465" x2="38.383" y2="19.5006" gradientUnits="userSpaceOnUse">
<stop stop-color="#FB9A33"/>
<stop offset="1" stop-color="#03BDCE"/>
</linearGradient>
</defs>
</svg>
