<svg width="102" height="98" viewBox="0 0 102 98" fill="none" xmlns="http://www.w3.org/2000/svg">
<rect y="0.169922" width="102" height="97.6596" rx="10" fill="#171717"/>
<path d="M50.6757 32.079C62.6542 32.079 74.6326 32.079 86.6111 32.079C88.9122 32.079 89.3945 32.5613 89.3945 34.8624C89.3976 49.5075 89.4006 64.1527 89.3914 78.7978C89.3883 84.1096 86.0765 87.4122 80.7616 87.4153C60.6941 87.4214 40.6296 87.4214 20.5621 87.4153C15.2533 87.4153 11.9507 84.1035 11.9477 78.7855C11.9415 64.1404 11.9446 49.4953 11.9477 34.8501C11.9477 32.5491 12.4238 32.079 14.7403 32.079C26.7187 32.079 38.6972 32.079 50.6757 32.079ZM46.3654 47.4615C46.3654 46.0298 46.3869 44.5951 46.3593 43.1635C46.3224 41.1696 45.3055 40.1097 43.3362 40.0851C40.4207 40.0513 37.5052 40.0483 34.5897 40.0882C32.7034 40.1128 31.6558 41.1696 31.6312 43.0682C31.5943 45.9837 31.5943 48.9023 31.6312 51.8178C31.6558 53.7257 32.6942 54.7886 34.5713 54.8163C37.5359 54.8562 40.5037 54.8593 43.4714 54.8132C45.2686 54.7856 46.3009 53.7195 46.3531 51.9131C46.3961 50.4292 46.3623 48.9453 46.3654 47.4615ZM69.7202 47.4584C69.7202 45.9745 69.754 44.4907 69.711 43.0068C69.6587 41.1881 68.6419 40.122 66.8415 40.0944C63.8247 40.0483 60.8047 40.0452 57.7878 40.0974C56.0858 40.1282 55.0198 41.2065 54.9921 42.9177C54.943 45.9346 54.943 48.9546 54.9921 51.9745C55.0198 53.6919 56.0797 54.7794 57.7786 54.8102C60.7955 54.8654 63.8154 54.8593 66.8323 54.8132C68.6296 54.7856 69.6587 53.7195 69.711 51.91C69.754 50.4261 69.7202 48.9423 69.7202 47.4584ZM38.8693 78.1895C40.4023 78.1895 41.9384 78.2264 43.4714 78.1803C45.2656 78.1281 46.3255 77.0805 46.3531 75.2771C46.3961 72.3093 46.3931 69.3416 46.3531 66.3739C46.3285 64.5582 45.2871 63.486 43.4898 63.4584C40.5252 63.4092 37.5574 63.4154 34.5897 63.4553C32.7003 63.4799 31.6558 64.5336 31.6312 66.4322C31.5943 69.3478 31.5943 72.2663 31.6312 75.1818C31.6558 77.1388 32.7279 78.1526 34.7249 78.1895C36.1043 78.211 37.4868 78.1895 38.8693 78.1895ZM69.7202 70.8562C69.7202 69.3723 69.7509 67.8885 69.714 66.4046C69.668 64.5797 68.6603 63.4891 66.8784 63.4584C63.8615 63.4061 60.8416 63.4092 57.8247 63.4584C56.1073 63.486 55.0259 64.549 54.9952 66.2448C54.943 69.2617 54.946 72.2817 54.9921 75.3017C55.0198 77.0928 56.095 78.1526 57.8984 78.1772C60.8631 78.2202 63.8308 78.2202 66.7985 78.1772C68.6634 78.1496 69.6772 77.0682 69.7171 75.1542C69.7478 73.7226 69.7202 72.2878 69.7202 70.8562Z" fill="url(#paint0_linear_213_16776)"/>
<path d="M50.6726 28.3925C38.6972 28.3925 26.7218 28.3925 14.7464 28.3925C12.43 28.3925 11.9507 27.9163 11.9477 25.6245C11.9446 23.0653 11.92 20.5031 11.9538 17.944C12.0183 13.4217 15.4315 9.96243 19.9569 9.95628C40.4269 9.92863 60.8999 9.92863 81.3699 9.95628C85.8983 9.96243 89.3085 13.4094 89.3822 17.9378C89.4221 20.5492 89.3976 23.1606 89.3914 25.7719C89.3853 27.8549 88.8507 28.3894 86.7524 28.3925C74.7248 28.3956 62.7002 28.3925 50.6726 28.3925ZM68.4452 17.3265C65.1672 17.3265 61.8892 17.3418 58.6142 17.3173C57.3331 17.308 56.3531 17.6613 56.2302 19.0991C56.1257 20.3003 57.029 21.0039 58.6327 21.007C65.1887 21.0162 71.7417 21.0131 78.2977 21.007C79.9322 21.0039 80.7801 20.3556 80.7739 19.1575C80.7678 17.9532 79.9414 17.3326 78.2793 17.3265C75.0013 17.3203 71.7233 17.3265 68.4452 17.3265ZM23.6865 21.0131C23.8923 21.0131 24.0951 21.007 24.3009 21.0131C25.5851 21.0684 26.5529 20.6536 26.6727 19.222C26.771 18.0116 25.8831 17.351 24.2579 17.3265C24.0521 17.3234 23.8493 17.3265 23.6435 17.3265C21.4315 17.3265 20.5529 17.858 20.5713 19.1882C20.5867 20.5093 21.4469 21.0131 23.6865 21.0131ZM33.4131 17.3265C33.2072 17.3265 33.0045 17.3357 32.7986 17.3265C31.5175 17.2712 30.5406 17.6644 30.4146 19.1022C30.3101 20.3034 31.2134 20.9854 32.817 21.0131C33.0229 21.0162 33.2257 21.0131 33.4315 21.0131C35.6496 21.0131 36.5221 20.4908 36.519 19.1606C36.5129 17.8395 35.6435 17.3265 33.4131 17.3265Z" fill="url(#paint1_linear_213_16776)"/>
<defs>
<linearGradient id="paint0_linear_213_16776" x1="103.506" y1="79.5644" x2="6.92898" y2="26.5561" gradientUnits="userSpaceOnUse">
<stop stop-color="#FB9A33"/>
<stop offset="1" stop-color="#03BDCE"/>
</linearGradient>
<linearGradient id="paint1_linear_213_16776" x1="103.506" y1="79.5644" x2="6.92898" y2="26.5561" gradientUnits="userSpaceOnUse">
<stop stop-color="#FB9A33"/>
<stop offset="1" stop-color="#03BDCE"/>
</linearGradient>
</defs>
</svg>
