<svg width="100" height="101" viewBox="0 0 100 101" fill="none" xmlns="http://www.w3.org/2000/svg">
<mask id="path-1-outside-1_213_16775" maskUnits="userSpaceOnUse" x="0" y="0" width="100" height="101" fill="black">
<rect fill="white" width="100" height="101"/>
<path d="M89.3506 50.6062C89.4112 72.3987 71.6547 90.2663 49.8319 90.3673C27.9721 90.4683 10.0574 72.6546 10.0001 50.7577C9.94291 28.8878 27.8037 10.9933 49.6838 11C71.4999 11.0067 89.29 28.77 89.3506 50.6062ZM47.9805 66.0468C43.4732 66.5382 39.2554 66.9994 34.866 67.4774C34.4216 65.6866 34.0311 63.8891 33.4993 62.1319C33.368 61.7044 32.8126 61.2096 32.3716 61.1154C31.6008 60.9504 30.7693 61.0682 29.7898 61.0682C30.4125 63.6938 30.9646 66.0199 31.5099 68.3189C29.2243 69.184 27.0531 70.0626 24.8281 70.7931C24.4578 70.9143 23.6499 70.5069 23.4244 70.1232C21.9029 67.5178 20.4184 64.8888 19.0753 62.1892C18.6579 61.351 18.2809 60.9605 17.3552 61.0514C16.6483 61.1221 15.9279 61.0649 15.1739 61.0649C18.2977 73.5466 32.1427 88.1826 52.4979 86.7891C66.8041 85.8129 83.3117 72.567 84.0287 61.1793C80.9083 60.8562 81.016 60.9067 79.7133 63.5525C78.5789 65.8549 77.1988 68.0362 75.859 70.2343C75.6571 70.5675 75.004 70.9546 74.7179 70.857C72.402 70.0761 70.1265 69.1807 67.8341 68.3223C68.3996 65.9323 68.9483 63.6063 69.5273 61.1591C68.8339 61.1221 68.3357 61.1322 67.8476 61.0615C66.528 60.8696 65.838 61.2601 65.6326 62.7345C65.4071 64.3671 64.8349 65.9559 64.4343 67.474C59.991 66.9893 55.7732 66.5281 51.3366 66.0434C51.3366 64.4243 51.3366 62.7782 51.3366 61.1524C50.1247 61.1524 49.1351 61.1524 47.9805 61.1524C47.9805 62.8321 47.9805 64.4378 47.9805 66.0468ZM84.1566 40.1913C81.2685 28.8642 69.1402 14.4739 49.6468 14.4941C30.049 14.5075 17.9544 29.0796 15.2177 40.1206C18.365 40.666 18.2674 40.6121 19.5735 37.9326C20.7012 35.6268 22.0745 33.4354 23.4143 31.2407C23.6432 30.8637 24.3501 30.4126 24.6631 30.517C26.9757 31.2845 29.2445 32.1866 31.5133 33.0416C30.9444 35.4585 30.3991 37.7778 29.8268 40.2149C30.5404 40.2519 31.042 40.2317 31.5301 40.3091C32.89 40.5279 33.5128 40.0399 33.7215 38.6059C33.9571 36.9766 34.526 35.3946 34.9265 33.8831C39.3867 34.3746 43.6011 34.8391 47.9805 35.3239C47.9805 36.9262 47.9805 38.5284 47.9805 40.2014C49.1755 40.2014 50.2022 40.2014 51.3938 40.2014C51.3938 38.5049 51.3938 36.9026 51.3938 35.3138C55.8169 34.8358 60.0818 34.3712 64.4612 33.8966C64.818 35.2734 65.1984 36.6131 65.5115 37.9697C66.0669 40.3832 66.05 40.3866 68.5174 40.2923C68.7901 40.2822 69.0594 40.2284 69.5138 40.1711C68.9416 37.7239 68.3895 35.3609 67.8476 33.0349C70.1534 32.1698 72.3347 31.3047 74.5563 30.5641C74.8997 30.4497 75.6402 30.7896 75.8489 31.133C77.2257 33.3715 78.7943 35.5561 79.7267 37.9798C80.5077 40.0163 81.6017 40.6222 83.544 40.2957C83.7055 40.2687 83.8705 40.2385 84.1566 40.1913ZM85.7791 44.059C82.6183 43.3723 82.386 43.5003 81.6253 46.2336C81.2348 47.6373 80.8376 49.0376 80.4303 50.4345C80.198 51.229 79.9422 52.0166 79.5618 53.2419C78.5957 50.2359 77.7239 47.7517 77.017 45.2204C76.6972 44.0792 76.1553 43.608 75.0141 43.7999C73.8326 43.9985 72.338 43.13 71.7927 45.1968C71.1128 47.7685 70.1029 50.2528 69.0897 53.1982C68.2549 50.2124 67.4874 47.708 66.8714 45.1631C66.6055 44.0658 66.0904 43.6753 65.0166 43.7864C64.367 43.8537 63.7038 43.7999 62.8421 43.7999C64.0505 47.8022 65.2826 51.5218 66.2688 55.3054C66.73 57.0793 67.4941 57.7728 69.3522 57.6078C70.4698 57.5102 71.0623 57.2746 71.3618 56.1301C71.7893 54.511 72.4053 52.939 72.9574 51.3501C73.3782 50.1383 73.8191 48.9366 74.3813 47.3713C75.5224 50.7139 76.5794 53.6088 77.4883 56.5475C77.9528 58.0488 79.0737 57.4463 79.9691 57.5338C80.7803 57.6112 81.6152 57.7324 81.9585 56.5677C83.1703 52.4441 84.4663 48.3341 85.7791 44.059ZM13.5986 43.948C13.7702 44.6178 13.8948 45.2035 14.0698 45.7758C15.0696 49.1015 16.0929 52.4172 17.0825 55.7463C17.3956 56.7966 17.6043 57.7492 19.1258 57.5977C20.4622 57.4664 21.6571 57.7391 22.1318 55.844C22.8185 53.0938 23.9057 50.448 24.9661 47.3276C26.1038 50.6533 27.0632 53.5146 28.073 56.359C28.2245 56.7865 28.5174 57.3486 28.8843 57.49C30.7794 58.2205 32.2437 57.4227 32.8564 55.4367C33.432 53.5651 34.0042 51.6901 34.5798 49.8152C35.1689 47.9032 35.758 45.9879 36.3504 44.0624C33.1896 43.3892 32.9607 43.5238 32.1932 46.2807C31.5873 48.4519 30.9747 50.6231 30.3688 52.7942C29.2478 50.374 28.44 47.9537 27.7196 45.5065C27.3863 44.3721 26.979 43.5911 25.572 43.783C24.2861 43.9581 22.8319 43.3118 22.3337 45.4156C21.7514 47.8729 20.7516 50.2292 19.9303 52.6293C18.9642 50.4379 18.1833 48.2802 17.7692 46.0552C17.4192 44.1701 16.5305 43.4902 14.7195 43.8032C14.3963 43.8604 14.0698 43.8907 13.5986 43.948ZM38.2792 44.086C39.4776 48.021 40.7433 51.9022 41.8137 55.8406C42.2008 57.2712 42.8808 57.5876 44.2508 57.6146C45.7184 57.6449 46.4826 57.2678 46.8495 55.7699C47.2702 54.0363 47.9603 52.3667 48.5393 50.6735C48.8658 49.7142 49.2024 48.7582 49.5323 47.8022C50.8417 50.7274 51.7573 53.6021 52.8177 56.4196C53.0062 56.9178 53.8006 57.4934 54.3156 57.4934C55.2548 57.49 56.847 57.315 57.0287 56.8067C58.5301 52.6057 59.7688 48.3139 61.0917 44.0321C57.8131 43.406 57.6919 43.4767 56.8806 46.3716C56.2714 48.5529 55.6621 50.7375 54.9215 53.3833C53.942 50.2999 53.06 47.708 52.3127 45.079C51.9997 43.9749 51.377 43.6248 50.3671 43.8167C49.2529 44.0287 47.7718 43.0728 47.2063 45.0521C46.4556 47.6777 45.4693 50.2326 44.4528 53.2083C43.7593 50.7207 43.1703 48.6337 42.5947 46.5433C41.7699 43.5474 41.7733 43.544 38.6226 43.8806C38.5586 43.884 38.5149 43.9379 38.2792 44.086Z"/>
<path d="M51.5048 69.5576C55.45 69.9615 59.2268 70.3486 63.2393 70.7627C60.6473 76.401 57.7794 81.2819 51.5048 83.3218C51.5048 78.69 51.5048 74.3073 51.5048 69.5576Z"/>
<path d="M47.8627 83.2713C41.5983 81.3458 38.8246 76.3841 36.1788 70.7727C40.1979 70.3553 43.9613 69.9649 47.8627 69.5609C47.8627 74.2466 47.8627 78.6428 47.8627 83.2713Z"/>
<path d="M72.8463 73.7484C69.2412 77.2762 65.4711 79.7436 61.3173 81.2516C62.9162 78.3836 64.5185 75.4551 66.1982 72.5736C66.3968 72.2337 67.1037 71.8903 67.4571 71.9879C69.1671 72.4558 70.8401 73.0752 72.8463 73.7484Z"/>
<path d="M26.5987 73.7116C28.7328 72.9913 30.6582 72.3416 32.4389 71.7424C34.388 75.0446 36.2158 78.1381 37.9796 81.1239C34.7313 80.2655 29.507 76.9499 26.5987 73.7116Z"/>
<path d="M47.9098 18.0388C47.9098 22.6808 47.9098 27.0298 47.9098 31.7896C43.9983 31.3957 40.1643 31.0053 36.0879 30.5946C38.7572 24.9462 41.5814 19.9845 47.9098 18.0388Z"/>
<path d="M51.5284 18.0521C57.7996 20.0449 60.6271 24.9763 63.2527 30.591C59.247 31.0051 55.4769 31.3955 51.5284 31.8062C51.5284 27.1441 51.5284 22.7513 51.5284 18.0521Z"/>
<path d="M72.8565 27.6154C70.8469 28.292 69.184 28.9181 67.474 29.3692C67.1071 29.4668 66.3732 29.046 66.1477 28.6623C64.4815 25.8381 62.9027 22.9667 61.3072 20.1291C65.4846 21.6034 69.2345 24.1011 72.8565 27.6154Z"/>
<path d="M26.5145 27.6255C30.0894 24.0843 33.8729 21.6371 38.1614 20.055C36.2966 23.2057 34.4553 26.3093 32.4894 29.6317C30.7188 29.0359 28.7799 28.3828 26.5145 27.6255Z"/>
</mask>
<path d="M89.3506 50.6062C89.4112 72.3987 71.6547 90.2663 49.8319 90.3673C27.9721 90.4683 10.0574 72.6546 10.0001 50.7577C9.94291 28.8878 27.8037 10.9933 49.6838 11C71.4999 11.0067 89.29 28.77 89.3506 50.6062ZM47.9805 66.0468C43.4732 66.5382 39.2554 66.9994 34.866 67.4774C34.4216 65.6866 34.0311 63.8891 33.4993 62.1319C33.368 61.7044 32.8126 61.2096 32.3716 61.1154C31.6008 60.9504 30.7693 61.0682 29.7898 61.0682C30.4125 63.6938 30.9646 66.0199 31.5099 68.3189C29.2243 69.184 27.0531 70.0626 24.8281 70.7931C24.4578 70.9143 23.6499 70.5069 23.4244 70.1232C21.9029 67.5178 20.4184 64.8888 19.0753 62.1892C18.6579 61.351 18.2809 60.9605 17.3552 61.0514C16.6483 61.1221 15.9279 61.0649 15.1739 61.0649C18.2977 73.5466 32.1427 88.1826 52.4979 86.7891C66.8041 85.8129 83.3117 72.567 84.0287 61.1793C80.9083 60.8562 81.016 60.9067 79.7133 63.5525C78.5789 65.8549 77.1988 68.0362 75.859 70.2343C75.6571 70.5675 75.004 70.9546 74.7179 70.857C72.402 70.0761 70.1265 69.1807 67.8341 68.3223C68.3996 65.9323 68.9483 63.6063 69.5273 61.1591C68.8339 61.1221 68.3357 61.1322 67.8476 61.0615C66.528 60.8696 65.838 61.2601 65.6326 62.7345C65.4071 64.3671 64.8349 65.9559 64.4343 67.474C59.991 66.9893 55.7732 66.5281 51.3366 66.0434C51.3366 64.4243 51.3366 62.7782 51.3366 61.1524C50.1247 61.1524 49.1351 61.1524 47.9805 61.1524C47.9805 62.8321 47.9805 64.4378 47.9805 66.0468ZM84.1566 40.1913C81.2685 28.8642 69.1402 14.4739 49.6468 14.4941C30.049 14.5075 17.9544 29.0796 15.2177 40.1206C18.365 40.666 18.2674 40.6121 19.5735 37.9326C20.7012 35.6268 22.0745 33.4354 23.4143 31.2407C23.6432 30.8637 24.3501 30.4126 24.6631 30.517C26.9757 31.2845 29.2445 32.1866 31.5133 33.0416C30.9444 35.4585 30.3991 37.7778 29.8268 40.2149C30.5404 40.2519 31.042 40.2317 31.5301 40.3091C32.89 40.5279 33.5128 40.0399 33.7215 38.6059C33.9571 36.9766 34.526 35.3946 34.9265 33.8831C39.3867 34.3746 43.6011 34.8391 47.9805 35.3239C47.9805 36.9262 47.9805 38.5284 47.9805 40.2014C49.1755 40.2014 50.2022 40.2014 51.3938 40.2014C51.3938 38.5049 51.3938 36.9026 51.3938 35.3138C55.8169 34.8358 60.0818 34.3712 64.4612 33.8966C64.818 35.2734 65.1984 36.6131 65.5115 37.9697C66.0669 40.3832 66.05 40.3866 68.5174 40.2923C68.7901 40.2822 69.0594 40.2284 69.5138 40.1711C68.9416 37.7239 68.3895 35.3609 67.8476 33.0349C70.1534 32.1698 72.3347 31.3047 74.5563 30.5641C74.8997 30.4497 75.6402 30.7896 75.8489 31.133C77.2257 33.3715 78.7943 35.5561 79.7267 37.9798C80.5077 40.0163 81.6017 40.6222 83.544 40.2957C83.7055 40.2687 83.8705 40.2385 84.1566 40.1913ZM85.7791 44.059C82.6183 43.3723 82.386 43.5003 81.6253 46.2336C81.2348 47.6373 80.8376 49.0376 80.4303 50.4345C80.198 51.229 79.9422 52.0166 79.5618 53.2419C78.5957 50.2359 77.7239 47.7517 77.017 45.2204C76.6972 44.0792 76.1553 43.608 75.0141 43.7999C73.8326 43.9985 72.338 43.13 71.7927 45.1968C71.1128 47.7685 70.1029 50.2528 69.0897 53.1982C68.2549 50.2124 67.4874 47.708 66.8714 45.1631C66.6055 44.0658 66.0904 43.6753 65.0166 43.7864C64.367 43.8537 63.7038 43.7999 62.8421 43.7999C64.0505 47.8022 65.2826 51.5218 66.2688 55.3054C66.73 57.0793 67.4941 57.7728 69.3522 57.6078C70.4698 57.5102 71.0623 57.2746 71.3618 56.1301C71.7893 54.511 72.4053 52.939 72.9574 51.3501C73.3782 50.1383 73.8191 48.9366 74.3813 47.3713C75.5224 50.7139 76.5794 53.6088 77.4883 56.5475C77.9528 58.0488 79.0737 57.4463 79.9691 57.5338C80.7803 57.6112 81.6152 57.7324 81.9585 56.5677C83.1703 52.4441 84.4663 48.3341 85.7791 44.059ZM13.5986 43.948C13.7702 44.6178 13.8948 45.2035 14.0698 45.7758C15.0696 49.1015 16.0929 52.4172 17.0825 55.7463C17.3956 56.7966 17.6043 57.7492 19.1258 57.5977C20.4622 57.4664 21.6571 57.7391 22.1318 55.844C22.8185 53.0938 23.9057 50.448 24.9661 47.3276C26.1038 50.6533 27.0632 53.5146 28.073 56.359C28.2245 56.7865 28.5174 57.3486 28.8843 57.49C30.7794 58.2205 32.2437 57.4227 32.8564 55.4367C33.432 53.5651 34.0042 51.6901 34.5798 49.8152C35.1689 47.9032 35.758 45.9879 36.3504 44.0624C33.1896 43.3892 32.9607 43.5238 32.1932 46.2807C31.5873 48.4519 30.9747 50.6231 30.3688 52.7942C29.2478 50.374 28.44 47.9537 27.7196 45.5065C27.3863 44.3721 26.979 43.5911 25.572 43.783C24.2861 43.9581 22.8319 43.3118 22.3337 45.4156C21.7514 47.8729 20.7516 50.2292 19.9303 52.6293C18.9642 50.4379 18.1833 48.2802 17.7692 46.0552C17.4192 44.1701 16.5305 43.4902 14.7195 43.8032C14.3963 43.8604 14.0698 43.8907 13.5986 43.948ZM38.2792 44.086C39.4776 48.021 40.7433 51.9022 41.8137 55.8406C42.2008 57.2712 42.8808 57.5876 44.2508 57.6146C45.7184 57.6449 46.4826 57.2678 46.8495 55.7699C47.2702 54.0363 47.9603 52.3667 48.5393 50.6735C48.8658 49.7142 49.2024 48.7582 49.5323 47.8022C50.8417 50.7274 51.7573 53.6021 52.8177 56.4196C53.0062 56.9178 53.8006 57.4934 54.3156 57.4934C55.2548 57.49 56.847 57.315 57.0287 56.8067C58.5301 52.6057 59.7688 48.3139 61.0917 44.0321C57.8131 43.406 57.6919 43.4767 56.8806 46.3716C56.2714 48.5529 55.6621 50.7375 54.9215 53.3833C53.942 50.2999 53.06 47.708 52.3127 45.079C51.9997 43.9749 51.377 43.6248 50.3671 43.8167C49.2529 44.0287 47.7718 43.0728 47.2063 45.0521C46.4556 47.6777 45.4693 50.2326 44.4528 53.2083C43.7593 50.7207 43.1703 48.6337 42.5947 46.5433C41.7699 43.5474 41.7733 43.544 38.6226 43.8806C38.5586 43.884 38.5149 43.9379 38.2792 44.086Z" fill="url(#paint0_linear_213_16775)"/>
<path d="M51.5048 69.5576C55.45 69.9615 59.2268 70.3486 63.2393 70.7627C60.6473 76.401 57.7794 81.2819 51.5048 83.3218C51.5048 78.69 51.5048 74.3073 51.5048 69.5576Z" fill="url(#paint1_linear_213_16775)"/>
<path d="M47.8627 83.2713C41.5983 81.3458 38.8246 76.3841 36.1788 70.7727C40.1979 70.3553 43.9613 69.9649 47.8627 69.5609C47.8627 74.2466 47.8627 78.6428 47.8627 83.2713Z" fill="url(#paint2_linear_213_16775)"/>
<path d="M72.8463 73.7484C69.2412 77.2762 65.4711 79.7436 61.3173 81.2516C62.9162 78.3836 64.5185 75.4551 66.1982 72.5736C66.3968 72.2337 67.1037 71.8903 67.4571 71.9879C69.1671 72.4558 70.8401 73.0752 72.8463 73.7484Z" fill="url(#paint3_linear_213_16775)"/>
<path d="M26.5987 73.7116C28.7328 72.9913 30.6582 72.3416 32.4389 71.7424C34.388 75.0446 36.2158 78.1381 37.9796 81.1239C34.7313 80.2655 29.507 76.9499 26.5987 73.7116Z" fill="url(#paint4_linear_213_16775)"/>
<path d="M47.9098 18.0388C47.9098 22.6808 47.9098 27.0298 47.9098 31.7896C43.9983 31.3957 40.1643 31.0053 36.0879 30.5946C38.7572 24.9462 41.5814 19.9845 47.9098 18.0388Z" fill="url(#paint5_linear_213_16775)"/>
<path d="M51.5284 18.0521C57.7996 20.0449 60.6271 24.9763 63.2527 30.591C59.247 31.0051 55.4769 31.3955 51.5284 31.8062C51.5284 27.1441 51.5284 22.7513 51.5284 18.0521Z" fill="url(#paint6_linear_213_16775)"/>
<path d="M72.8565 27.6154C70.8469 28.292 69.184 28.9181 67.474 29.3692C67.1071 29.4668 66.3732 29.046 66.1477 28.6623C64.4815 25.8381 62.9027 22.9667 61.3072 20.1291C65.4846 21.6034 69.2345 24.1011 72.8565 27.6154Z" fill="url(#paint7_linear_213_16775)"/>
<path d="M26.5145 27.6255C30.0894 24.0843 33.8729 21.6371 38.1614 20.055C36.2966 23.2057 34.4553 26.3093 32.4894 29.6317C30.7188 29.0359 28.7799 28.3828 26.5145 27.6255Z" fill="url(#paint8_linear_213_16775)"/>
<path d="M89.3506 50.6062C89.4112 72.3987 71.6547 90.2663 49.8319 90.3673C27.9721 90.4683 10.0574 72.6546 10.0001 50.7577C9.94291 28.8878 27.8037 10.9933 49.6838 11C71.4999 11.0067 89.29 28.77 89.3506 50.6062ZM47.9805 66.0468C43.4732 66.5382 39.2554 66.9994 34.866 67.4774C34.4216 65.6866 34.0311 63.8891 33.4993 62.1319C33.368 61.7044 32.8126 61.2096 32.3716 61.1154C31.6008 60.9504 30.7693 61.0682 29.7898 61.0682C30.4125 63.6938 30.9646 66.0199 31.5099 68.3189C29.2243 69.184 27.0531 70.0626 24.8281 70.7931C24.4578 70.9143 23.6499 70.5069 23.4244 70.1232C21.9029 67.5178 20.4184 64.8888 19.0753 62.1892C18.6579 61.351 18.2809 60.9605 17.3552 61.0514C16.6483 61.1221 15.9279 61.0649 15.1739 61.0649C18.2977 73.5466 32.1427 88.1826 52.4979 86.7891C66.8041 85.8129 83.3117 72.567 84.0287 61.1793C80.9083 60.8562 81.016 60.9067 79.7133 63.5525C78.5789 65.8549 77.1988 68.0362 75.859 70.2343C75.6571 70.5675 75.004 70.9546 74.7179 70.857C72.402 70.0761 70.1265 69.1807 67.8341 68.3223C68.3996 65.9323 68.9483 63.6063 69.5273 61.1591C68.8339 61.1221 68.3357 61.1322 67.8476 61.0615C66.528 60.8696 65.838 61.2601 65.6326 62.7345C65.4071 64.3671 64.8349 65.9559 64.4343 67.474C59.991 66.9893 55.7732 66.5281 51.3366 66.0434C51.3366 64.4243 51.3366 62.7782 51.3366 61.1524C50.1247 61.1524 49.1351 61.1524 47.9805 61.1524C47.9805 62.8321 47.9805 64.4378 47.9805 66.0468ZM84.1566 40.1913C81.2685 28.8642 69.1402 14.4739 49.6468 14.4941C30.049 14.5075 17.9544 29.0796 15.2177 40.1206C18.365 40.666 18.2674 40.6121 19.5735 37.9326C20.7012 35.6268 22.0745 33.4354 23.4143 31.2407C23.6432 30.8637 24.3501 30.4126 24.6631 30.517C26.9757 31.2845 29.2445 32.1866 31.5133 33.0416C30.9444 35.4585 30.3991 37.7778 29.8268 40.2149C30.5404 40.2519 31.042 40.2317 31.5301 40.3091C32.89 40.5279 33.5128 40.0399 33.7215 38.6059C33.9571 36.9766 34.526 35.3946 34.9265 33.8831C39.3867 34.3746 43.6011 34.8391 47.9805 35.3239C47.9805 36.9262 47.9805 38.5284 47.9805 40.2014C49.1755 40.2014 50.2022 40.2014 51.3938 40.2014C51.3938 38.5049 51.3938 36.9026 51.3938 35.3138C55.8169 34.8358 60.0818 34.3712 64.4612 33.8966C64.818 35.2734 65.1984 36.6131 65.5115 37.9697C66.0669 40.3832 66.05 40.3866 68.5174 40.2923C68.7901 40.2822 69.0594 40.2284 69.5138 40.1711C68.9416 37.7239 68.3895 35.3609 67.8476 33.0349C70.1534 32.1698 72.3347 31.3047 74.5563 30.5641C74.8997 30.4497 75.6402 30.7896 75.8489 31.133C77.2257 33.3715 78.7943 35.5561 79.7267 37.9798C80.5077 40.0163 81.6017 40.6222 83.544 40.2957C83.7055 40.2687 83.8705 40.2385 84.1566 40.1913ZM85.7791 44.059C82.6183 43.3723 82.386 43.5003 81.6253 46.2336C81.2348 47.6373 80.8376 49.0376 80.4303 50.4345C80.198 51.229 79.9422 52.0166 79.5618 53.2419C78.5957 50.2359 77.7239 47.7517 77.017 45.2204C76.6972 44.0792 76.1553 43.608 75.0141 43.7999C73.8326 43.9985 72.338 43.13 71.7927 45.1968C71.1128 47.7685 70.1029 50.2528 69.0897 53.1982C68.2549 50.2124 67.4874 47.708 66.8714 45.1631C66.6055 44.0658 66.0904 43.6753 65.0166 43.7864C64.367 43.8537 63.7038 43.7999 62.8421 43.7999C64.0505 47.8022 65.2826 51.5218 66.2688 55.3054C66.73 57.0793 67.4941 57.7728 69.3522 57.6078C70.4698 57.5102 71.0623 57.2746 71.3618 56.1301C71.7893 54.511 72.4053 52.939 72.9574 51.3501C73.3782 50.1383 73.8191 48.9366 74.3813 47.3713C75.5224 50.7139 76.5794 53.6088 77.4883 56.5475C77.9528 58.0488 79.0737 57.4463 79.9691 57.5338C80.7803 57.6112 81.6152 57.7324 81.9585 56.5677C83.1703 52.4441 84.4663 48.3341 85.7791 44.059ZM13.5986 43.948C13.7702 44.6178 13.8948 45.2035 14.0698 45.7758C15.0696 49.1015 16.0929 52.4172 17.0825 55.7463C17.3956 56.7966 17.6043 57.7492 19.1258 57.5977C20.4622 57.4664 21.6571 57.7391 22.1318 55.844C22.8185 53.0938 23.9057 50.448 24.9661 47.3276C26.1038 50.6533 27.0632 53.5146 28.073 56.359C28.2245 56.7865 28.5174 57.3486 28.8843 57.49C30.7794 58.2205 32.2437 57.4227 32.8564 55.4367C33.432 53.5651 34.0042 51.6901 34.5798 49.8152C35.1689 47.9032 35.758 45.9879 36.3504 44.0624C33.1896 43.3892 32.9607 43.5238 32.1932 46.2807C31.5873 48.4519 30.9747 50.6231 30.3688 52.7942C29.2478 50.374 28.44 47.9537 27.7196 45.5065C27.3863 44.3721 26.979 43.5911 25.572 43.783C24.2861 43.9581 22.8319 43.3118 22.3337 45.4156C21.7514 47.8729 20.7516 50.2292 19.9303 52.6293C18.9642 50.4379 18.1833 48.2802 17.7692 46.0552C17.4192 44.1701 16.5305 43.4902 14.7195 43.8032C14.3963 43.8604 14.0698 43.8907 13.5986 43.948ZM38.2792 44.086C39.4776 48.021 40.7433 51.9022 41.8137 55.8406C42.2008 57.2712 42.8808 57.5876 44.2508 57.6146C45.7184 57.6449 46.4826 57.2678 46.8495 55.7699C47.2702 54.0363 47.9603 52.3667 48.5393 50.6735C48.8658 49.7142 49.2024 48.7582 49.5323 47.8022C50.8417 50.7274 51.7573 53.6021 52.8177 56.4196C53.0062 56.9178 53.8006 57.4934 54.3156 57.4934C55.2548 57.49 56.847 57.315 57.0287 56.8067C58.5301 52.6057 59.7688 48.3139 61.0917 44.0321C57.8131 43.406 57.6919 43.4767 56.8806 46.3716C56.2714 48.5529 55.6621 50.7375 54.9215 53.3833C53.942 50.2999 53.06 47.708 52.3127 45.079C51.9997 43.9749 51.377 43.6248 50.3671 43.8167C49.2529 44.0287 47.7718 43.0728 47.2063 45.0521C46.4556 47.6777 45.4693 50.2326 44.4528 53.2083C43.7593 50.7207 43.1703 48.6337 42.5947 46.5433C41.7699 43.5474 41.7733 43.544 38.6226 43.8806C38.5586 43.884 38.5149 43.9379 38.2792 44.086Z" stroke="#171717" stroke-width="20" mask="url(#path-1-outside-1_213_16775)"/>
<path d="M51.5048 69.5576C55.45 69.9615 59.2268 70.3486 63.2393 70.7627C60.6473 76.401 57.7794 81.2819 51.5048 83.3218C51.5048 78.69 51.5048 74.3073 51.5048 69.5576Z" stroke="#171717" stroke-width="20" mask="url(#path-1-outside-1_213_16775)"/>
<path d="M47.8627 83.2713C41.5983 81.3458 38.8246 76.3841 36.1788 70.7727C40.1979 70.3553 43.9613 69.9649 47.8627 69.5609C47.8627 74.2466 47.8627 78.6428 47.8627 83.2713Z" stroke="#171717" stroke-width="20" mask="url(#path-1-outside-1_213_16775)"/>
<path d="M72.8463 73.7484C69.2412 77.2762 65.4711 79.7436 61.3173 81.2516C62.9162 78.3836 64.5185 75.4551 66.1982 72.5736C66.3968 72.2337 67.1037 71.8903 67.4571 71.9879C69.1671 72.4558 70.8401 73.0752 72.8463 73.7484Z" stroke="#171717" stroke-width="20" mask="url(#path-1-outside-1_213_16775)"/>
<path d="M26.5987 73.7116C28.7328 72.9913 30.6582 72.3416 32.4389 71.7424C34.388 75.0446 36.2158 78.1381 37.9796 81.1239C34.7313 80.2655 29.507 76.9499 26.5987 73.7116Z" stroke="#171717" stroke-width="20" mask="url(#path-1-outside-1_213_16775)"/>
<path d="M47.9098 18.0388C47.9098 22.6808 47.9098 27.0298 47.9098 31.7896C43.9983 31.3957 40.1643 31.0053 36.0879 30.5946C38.7572 24.9462 41.5814 19.9845 47.9098 18.0388Z" stroke="#171717" stroke-width="20" mask="url(#path-1-outside-1_213_16775)"/>
<path d="M51.5284 18.0521C57.7996 20.0449 60.6271 24.9763 63.2527 30.591C59.247 31.0051 55.4769 31.3955 51.5284 31.8062C51.5284 27.1441 51.5284 22.7513 51.5284 18.0521Z" stroke="#171717" stroke-width="20" mask="url(#path-1-outside-1_213_16775)"/>
<path d="M72.8565 27.6154C70.8469 28.292 69.184 28.9181 67.474 29.3692C67.1071 29.4668 66.3732 29.046 66.1477 28.6623C64.4815 25.8381 62.9027 22.9667 61.3072 20.1291C65.4846 21.6034 69.2345 24.1011 72.8565 27.6154Z" stroke="#171717" stroke-width="20" mask="url(#path-1-outside-1_213_16775)"/>
<path d="M26.5145 27.6255C30.0894 24.0843 33.8729 21.6371 38.1614 20.055C36.2966 23.2057 34.4553 26.3093 32.4894 29.6317C30.7188 29.0359 28.7799 28.3828 26.5145 27.6255Z" stroke="#171717" stroke-width="20" mask="url(#path-1-outside-1_213_16775)"/>
<defs>
<linearGradient id="paint0_linear_213_16775" x1="103.795" y1="82.3212" x2="4.87081" y2="28.0252" gradientUnits="userSpaceOnUse">
<stop stop-color="#FB9A33"/>
<stop offset="1" stop-color="#03BDCE"/>
</linearGradient>
<linearGradient id="paint1_linear_213_16775" x1="103.795" y1="82.3212" x2="4.87081" y2="28.0252" gradientUnits="userSpaceOnUse">
<stop stop-color="#FB9A33"/>
<stop offset="1" stop-color="#03BDCE"/>
</linearGradient>
<linearGradient id="paint2_linear_213_16775" x1="103.795" y1="82.3212" x2="4.87081" y2="28.0252" gradientUnits="userSpaceOnUse">
<stop stop-color="#FB9A33"/>
<stop offset="1" stop-color="#03BDCE"/>
</linearGradient>
<linearGradient id="paint3_linear_213_16775" x1="103.795" y1="82.3212" x2="4.87081" y2="28.0252" gradientUnits="userSpaceOnUse">
<stop stop-color="#FB9A33"/>
<stop offset="1" stop-color="#03BDCE"/>
</linearGradient>
<linearGradient id="paint4_linear_213_16775" x1="103.795" y1="82.3212" x2="4.87081" y2="28.0252" gradientUnits="userSpaceOnUse">
<stop stop-color="#FB9A33"/>
<stop offset="1" stop-color="#03BDCE"/>
</linearGradient>
<linearGradient id="paint5_linear_213_16775" x1="103.795" y1="82.3212" x2="4.87081" y2="28.0252" gradientUnits="userSpaceOnUse">
<stop stop-color="#FB9A33"/>
<stop offset="1" stop-color="#03BDCE"/>
</linearGradient>
<linearGradient id="paint6_linear_213_16775" x1="103.795" y1="82.3212" x2="4.87081" y2="28.0252" gradientUnits="userSpaceOnUse">
<stop stop-color="#FB9A33"/>
<stop offset="1" stop-color="#03BDCE"/>
</linearGradient>
<linearGradient id="paint7_linear_213_16775" x1="103.795" y1="82.3212" x2="4.87081" y2="28.0252" gradientUnits="userSpaceOnUse">
<stop stop-color="#FB9A33"/>
<stop offset="1" stop-color="#03BDCE"/>
</linearGradient>
<linearGradient id="paint8_linear_213_16775" x1="103.795" y1="82.3212" x2="4.87081" y2="28.0252" gradientUnits="userSpaceOnUse">
<stop stop-color="#FB9A33"/>
<stop offset="1" stop-color="#03BDCE"/>
</linearGradient>
</defs>
</svg>
