<svg width="177" height="51" viewBox="0 0 177 51" fill="none" xmlns="http://www.w3.org/2000/svg">
<path d="M25.2833 12.1724H20.8933V39.2761H25.2833V12.1724Z" fill="white"/>
<path d="M35.6254 12.1723H31.2629V39.276H35.6254V20.6288C35.6254 18.9912 35.9488 17.7733 36.6025 16.9751C37.2562 16.1769 38.2333 15.7709 39.5406 15.7709C40.848 15.7709 41.8251 16.1425 42.4788 16.8925C43.1324 17.6425 43.4558 18.771 43.4558 20.2848V39.2691H47.8183V19.5829C47.8183 16.9889 47.2816 15.0278 46.2013 13.6929C45.121 12.358 43.965 12.1654 41.8388 12.1654C40.4076 12.1723 36.747 12.1723 35.6254 12.1723Z" fill="white"/>
<path d="M66.3071 25.9065C65.6122 25.3491 64.8346 24.9088 63.9814 24.5854C63.1282 24.262 62.2818 23.9798 61.4492 23.739C60.6166 23.4982 59.846 23.2229 59.1373 22.9271C58.4354 22.6312 57.8643 22.2115 57.4377 21.6748C57.0111 21.138 56.7978 20.4018 56.7978 19.4798C56.7978 18.193 57.0868 17.4705 57.6648 16.7893C58.2496 16.1081 59.1029 15.771 60.2382 15.771C61.3667 15.771 62.2337 16.0875 62.8254 16.7274C63.4172 17.3604 63.7199 18.0348 63.7199 19.2733V19.3765H67.8966V19.3009C67.8966 16.8306 67.2429 15.4132 65.9287 14.1196C64.6144 12.826 62.7222 12.1723 60.252 12.1723C57.7955 12.1723 55.9101 12.8535 54.5821 14.209C53.261 15.5645 52.5936 17.0439 52.5936 19.5898C52.5936 21.0211 52.8137 22.1839 53.261 23.0922C53.7083 24.0005 54.2862 24.7367 54.995 25.301C55.7106 25.8652 56.495 26.3262 57.3551 26.6703C58.2152 27.0212 59.0685 27.3308 59.901 27.6129C60.7336 27.8744 61.4974 28.1565 62.1855 28.4593C62.8736 28.762 63.424 29.168 63.83 29.6703C64.236 30.1726 64.4424 30.8745 64.4424 31.7621C64.4424 33.0832 64.1052 33.4204 63.424 34.1222C62.7428 34.8241 61.752 35.1819 60.4446 35.1819C59.1235 35.1819 58.1189 34.8172 57.4446 34.0878C56.7634 33.3585 56.4262 32.9663 56.4262 31.5557V31.4525H52.2495V31.5557C52.2495 34.1704 52.9582 35.7805 54.3757 37.1842C55.7932 38.5879 57.8161 39.2898 60.4446 39.2898C63.0938 39.2898 65.1167 38.6086 66.5273 37.2393C67.9379 35.87 68.6397 34.308 68.6397 31.769C68.6397 30.269 68.4196 29.0648 67.9861 28.1359C67.5732 27.2001 67.0021 26.4638 66.3071 25.9065Z" fill="white"/>
<path d="M79.7113 31.4387L74.6677 12.1654H70.2295L78.0393 38.7599L77.0966 42.7715C76.8007 43.9894 76.2847 44.9114 75.5553 45.5238C74.8259 46.1431 73.7731 46.4527 72.397 46.4527H71.9015V50.5813H72.397C74.6264 50.5813 76.381 50.1684 77.6608 49.3427C78.9407 48.517 79.787 47.2784 80.2068 45.6202L88.7459 12.1654H84.3077L79.7113 31.4387Z" fill="white"/>
<path d="M97.1337 34.3631C96.7071 33.8264 96.4938 33.0763 96.4938 32.1199V1.30737H92.1313V32.0993C92.1313 34.3768 92.6887 36.1452 93.8034 37.3975C94.9181 38.6498 96.4732 39.276 98.4755 39.276H100.567V35.175H98.9503C98.1659 35.175 97.5604 34.9067 97.1337 34.3631Z" fill="#49ABB2"/>
<path d="M109.492 34.3631C109.065 33.8264 108.852 33.0763 108.852 32.1199V1.30737H104.49V32.0993C104.49 34.3768 105.047 36.1452 106.162 37.3975C107.276 38.6498 108.831 39.276 110.834 39.276H112.925V35.175H111.308C110.517 35.175 109.918 34.9067 109.492 34.3631Z" fill="#49ABB2"/>
<path d="M121.464 12.1723H117.074V39.276H121.464V12.1723Z" fill="#49ABB2"/>
<path d="M121.464 1.30737H117.074V5.66984H121.464V1.30737Z" fill="#49ABB2"/>
<path d="M139.114 39.276H143.476V12.1723H139.114V31.8584C139.114 33.0626 138.811 33.6543 138.212 34.2599C137.614 34.8723 136.706 35.175 135.481 35.175C134.297 35.175 133.389 34.8723 132.749 34.2599C132.116 33.6475 131.793 33.0901 131.793 31.9616V12.1723H127.43V32.0442C127.43 34.5007 127.974 36.386 129.061 37.7003C130.148 39.0145 131.717 39.2829 133.774 39.2829H139.114V39.276Z" fill="#49ABB2"/>
<path d="M170.58 12.1723C172.706 12.1723 174.303 12.8397 175.383 14.1677C176.463 15.5026 177 16.9958 177 19.583V39.276H172.638V20.2917C172.638 18.7779 172.314 17.6426 171.674 16.8994C171.027 16.1494 170.043 15.7778 168.722 15.7778C167.553 15.7778 166.692 16.1838 166.135 16.9889C165.578 17.8008 165.303 19.0187 165.303 20.6564V39.276H160.913V20.2917C160.913 18.7779 160.637 17.6426 160.08 16.8994C159.523 16.1494 158.663 15.7778 157.493 15.7778C156.185 15.7778 155.208 16.1769 154.555 16.982C153.901 17.7802 153.578 19.0119 153.578 20.6633V39.2829H149.215V12.1723H153.578H170.58Z" fill="#49ABB2"/>
<path d="M20.2606 2.8418L20.24 6.05516H17.9693L17.5702 6.06204C16.139 6.10333 14.6252 6.31663 13.0701 6.69508C11.632 7.05977 10.4141 7.59648 9.36135 8.36025C7.32461 9.819 6.27872 11.6975 6.14798 14.0989C6.12046 14.6081 6.09982 15.1104 6.07229 15.6058C6.05165 16.115 6.02413 16.6242 5.9966 17.1265C5.9278 18.1999 5.68008 19.1907 5.25347 20.0646C4.99888 20.5738 4.73741 21.0761 4.46905 21.5784L4.28327 21.95L5.39797 22.0119C6.01725 22.0532 6.7191 22.6174 6.74662 23.3261L6.77414 23.7459C6.78102 24.028 6.80167 24.3032 6.80167 24.5853L6.84983 29.5258C6.84983 29.9937 6.92552 30.3859 7.08378 30.73C7.2214 31.0465 7.42782 31.2185 7.70306 31.3011C7.88196 31.3492 8.05398 31.3699 8.23977 31.3699C8.79712 31.3905 9.35447 31.3974 9.91182 31.4112C10.4692 31.4112 11.0265 31.418 11.5839 31.4387C12.0449 31.4456 12.444 31.48 12.8087 31.5488C13.4279 31.6726 13.8821 32.2644 13.8821 32.9112L13.9234 38.7874C13.9302 38.8769 13.9302 38.9251 13.9302 38.9664H10.7169C10.71 38.0787 10.71 37.198 10.71 36.3035C10.71 35.753 10.71 35.2094 10.7031 34.6589C10.4004 34.652 10.1251 34.6383 9.86365 34.6383C9.18933 34.6176 8.4806 34.597 7.78563 34.542C6.1411 34.4181 4.93007 33.5993 4.18694 32.1337C3.68463 31.1566 3.61582 30.1588 3.61582 29.2299L3.6227 25.1977L3.15481 25.1771C2.63874 25.1702 2.12956 25.1496 1.60661 25.1496C1.09055 25.2115 0.581361 24.895 0.278603 24.4271C-0.0379171 23.9592 -0.0860832 23.3881 0.140985 22.8995C0.739621 21.5715 1.35202 20.3811 2.01258 19.294C2.48048 18.5302 2.72819 17.787 2.77636 17.0301L2.80388 16.6655C2.84517 16.0462 2.87957 15.4338 2.89333 14.8145C2.92086 12.8947 3.32683 11.2089 4.09748 9.66762C5.10897 7.67217 6.67093 6.08269 8.76959 4.9611C10.4348 4.05971 12.2857 3.46107 14.4394 3.12391C15.6161 2.95877 16.6 2.86932 17.5496 2.86932L17.9693 2.86244H20.2606V2.8418Z" fill="#49ABB2"/>
<path d="M26.2816 1.34865C25.4696 0.502303 24.3687 0.0206426 23.2058 0H22.9925C20.5773 0.0481661 18.6782 1.98857 18.6782 4.41752C18.6782 5.59415 19.1461 6.70885 19.9925 7.52767C20.8251 8.34649 21.9191 8.80063 23.1439 8.80063H23.1852C25.566 8.75246 27.4651 6.85334 27.5133 4.47256C27.5201 3.3097 27.0935 2.195 26.2816 1.34865Z" fill="white"/>
</svg>
